<svg width="35" height="28" viewBox="0 0 35 28" fill="none" xmlns="http://www.w3.org/2000/svg">
<path d="M32.7287 4.67081L10.9242 3.97259H3.32565L1.21953 5.36904L2.12806 9.59949V11.4067L2.70621 14.3228V16.2121L0.35231 16.9104V20.2783L1.21953 22.948L15.219 27.3427L31.4072 22.948L30.7878 21.0176L31.4072 18.5122V16.9104L32.7287 16.2121V12.6799L32.1092 9.59949V6.88872L32.7287 4.67081Z" fill="white"/>
<path d="M21.9916 0.4568C21.7851 0.473229 21.5456 0.522516 21.4548 0.563588C21.3639 0.60466 20.6949 0.695019 19.9681 0.768949C19.2413 0.842879 18.5723 0.933238 18.4814 0.974311C18.3906 1.01538 17.7051 1.10574 16.9535 1.18789C16.2019 1.26182 15.5576 1.35218 15.5081 1.38503C15.4668 1.41789 14.773 1.50825 13.9801 1.59039C13.1872 1.67254 12.5182 1.7629 12.4935 1.79576C12.4687 1.8204 11.7997 1.92719 11.0068 2.02576C8.09126 2.37898 7.3314 2.48577 7.29011 2.53506C7.26533 2.56791 6.57155 2.65827 5.74562 2.74042C4.91143 2.82256 4.23417 2.92114 4.23417 2.96221C4.23417 2.99507 4.09376 3.02792 3.92858 3.02792C3.47432 3.03614 2.54928 3.2415 2.51624 3.34829C2.49972 3.39757 2.44191 3.43865 2.38409 3.43865C2.25194 3.43865 1.77291 3.90687 1.71509 4.10402C1.68205 4.18616 1.6325 4.26009 1.5912 4.26009C1.54991 4.26009 1.46731 4.41617 1.4095 4.6051C1.35994 4.80225 1.26909 4.98296 1.21953 5.01582C1.09565 5.10618 1.1039 8.06339 1.23605 8.21125C1.28561 8.27696 1.37646 8.51518 1.43428 8.73697C1.49209 8.96697 1.5912 9.19698 1.64902 9.25448C1.70683 9.31198 1.75639 9.41055 1.75639 9.46806C1.75639 9.52556 1.83072 9.64056 1.92157 9.7227C2.23543 10.0102 2.13631 10.1334 1.46731 10.2895C1.12042 10.3716 0.790052 10.4866 0.723978 10.5606C0.542273 10.7413 0.58357 11.3245 0.773533 11.3245C0.81483 11.3245 0.9222 11.3985 1.01305 11.4888C1.1039 11.5792 1.25257 11.6531 1.34342 11.6531C1.43428 11.6531 1.50861 11.686 1.50861 11.7352C1.50861 11.7763 1.55817 11.8174 1.61598 11.8174C1.79768 11.8174 2.15283 12.2117 2.2602 12.532C2.30976 12.7046 2.39235 12.8688 2.44191 12.8935C2.4832 12.9263 2.54102 13.4356 2.5658 14.0271C2.59883 14.9882 2.59058 15.1032 2.46669 15.1032C2.39235 15.1032 2.33454 15.136 2.33454 15.1771C2.33454 15.2182 2.05372 15.3167 1.71509 15.3989C1.37646 15.481 1.09565 15.5714 1.09565 15.6043C1.09565 15.6453 0.938719 15.711 0.748756 15.7685C0.311014 15.8835 0.088013 16.1053 0.12105 16.3928C0.145828 16.5818 0.203643 16.6311 0.558792 16.7132C0.790052 16.7625 0.9222 16.8118 0.872645 16.82C0.81483 16.82 0.707459 16.9514 0.633126 17.0911C0.558792 17.2389 0.46794 17.3786 0.426644 17.4032C0.393606 17.4279 0.302754 17.6661 0.228421 17.9372C-0.00283912 18.8325 0.112791 21.5844 0.393606 21.8719C0.451421 21.9294 0.525755 22.0855 0.550533 22.2251C0.58357 22.3647 0.674422 22.5455 0.757015 22.6358C0.839608 22.718 0.955238 22.874 1.00479 22.9726C1.05435 23.0712 1.15346 23.1533 1.21953 23.1533C1.28561 23.1533 1.34342 23.1862 1.34342 23.2273C1.34342 23.3176 1.80594 23.5641 1.97939 23.5641C2.0372 23.5641 2.08676 23.5969 2.08676 23.638C2.08676 23.6791 2.29324 23.7612 2.54102 23.8187C2.7888 23.8762 2.99528 23.9419 2.99528 23.9748C2.99528 24.0076 3.22654 24.0816 3.50736 24.1391C3.79643 24.1884 4.17636 24.3034 4.35806 24.3855C4.53977 24.4676 4.82058 24.558 4.97751 24.5909C5.13443 24.6237 5.41525 24.7141 5.59695 24.7962C5.77866 24.8784 6.14207 24.9934 6.40636 25.0427C6.6624 25.1002 6.87714 25.1741 6.87714 25.207C6.87714 25.2398 7.17448 25.3302 7.53788 25.4123C7.90129 25.4945 8.19863 25.593 8.19863 25.6259C8.19863 25.6587 8.33904 25.708 8.51248 25.7409C8.67767 25.7737 8.96674 25.8641 9.14845 25.9463C9.33015 26.0284 9.69356 26.1434 9.95785 26.1927C10.2139 26.2502 10.4286 26.3241 10.4286 26.357C10.4286 26.3816 10.7012 26.472 11.0316 26.5623C11.3537 26.6445 11.6675 26.7348 11.7088 26.7677C11.7584 26.8006 12.0557 26.8909 12.3696 26.9731C12.6917 27.0552 12.9642 27.1456 12.989 27.1784C13.0138 27.2031 13.2946 27.3016 13.6085 27.3838C13.9306 27.4659 14.2114 27.5727 14.2444 27.622C14.3105 27.7206 15.1942 27.7124 15.3264 27.6056C15.3842 27.5645 15.7889 27.4577 16.2349 27.3756C16.6727 27.2934 17.0361 27.2031 17.0361 27.1784C17.0361 27.1456 17.416 27.0552 17.8868 26.9731C18.3493 26.8909 18.7457 26.7923 18.7705 26.7677C18.7953 26.7431 19.1917 26.6445 19.6625 26.5623C20.125 26.4802 20.505 26.3898 20.505 26.357C20.505 26.3323 20.8684 26.242 21.3144 26.1598C21.7521 26.0777 22.1568 25.9791 22.1981 25.938C22.2477 25.9052 22.545 25.8312 22.8589 25.7737C23.181 25.7245 23.4535 25.6505 23.4783 25.6177C23.5031 25.5848 23.8582 25.5027 24.2629 25.4205C24.6759 25.3466 25.0806 25.248 25.1715 25.207C25.2623 25.1741 25.6918 25.0755 26.1213 24.9934C26.5508 24.9194 26.9224 24.8291 26.9472 24.7962C26.972 24.7634 27.3436 24.673 27.7731 24.5909C28.2026 24.5087 28.5991 24.4184 28.6403 24.3855C28.6899 24.3526 29.0781 24.2623 29.5076 24.1801C29.9371 24.1062 30.3335 24.0159 30.3748 23.9748C30.4244 23.9419 30.7299 23.868 31.0603 23.8105C31.3824 23.753 31.655 23.6791 31.655 23.6462C31.655 23.6133 32.0432 23.523 32.5222 23.4326C33.0013 23.3505 33.3894 23.2601 33.3894 23.2273C33.3894 23.1944 33.5381 23.1533 33.7281 23.1205C34.0254 23.0712 34.0584 23.0465 34.0337 22.8576C34.0171 22.7262 33.918 22.5948 33.7611 22.5126C33.629 22.4387 33.5051 22.3483 33.4885 22.3155C33.472 22.2908 33.249 22.2005 32.993 22.1183C32.737 22.0362 32.5057 21.9458 32.4809 21.9212C32.4561 21.8883 32.2414 21.8144 32.0101 21.7569L31.5724 21.6583V20.7958C31.5724 19.9333 31.7624 18.7997 31.911 18.7997C31.9523 18.7997 32.0267 18.7175 32.0762 18.6107C32.1588 18.4382 32.3653 18.3068 32.7948 18.1836C32.8939 18.1589 32.9765 18.0932 32.9765 18.0522C32.9765 18.0111 33.0343 17.9782 33.1004 17.9782C33.3068 17.9782 33.4968 17.6004 33.439 17.2964C33.3977 17.0582 33.3399 17.0171 33.0178 16.9268L32.6461 16.8282L32.96 16.5243C33.1251 16.3518 33.3234 16.1135 33.3812 15.9821C33.4473 15.8589 33.5298 15.7603 33.5546 15.7603C33.5877 15.7603 33.662 15.5303 33.7198 15.2428C33.7776 14.9635 33.8685 14.7089 33.918 14.676C34.0419 14.5939 34.0419 11.5874 33.9263 11.5052C33.8767 11.4724 33.7859 11.2917 33.7281 11.1027C33.662 10.9138 33.5629 10.7413 33.5051 10.7167C33.439 10.692 33.3894 10.6181 33.3894 10.5606C33.3894 10.4784 33.5877 10.4127 34.0089 10.3388C34.3475 10.2813 34.6283 10.2074 34.6283 10.1663C34.6283 10.1334 34.7109 10.0924 34.8183 10.0759C34.9587 10.0595 35 9.99378 35 9.80485C35 9.61592 34.9422 9.53377 34.7522 9.44341C34.6201 9.3777 34.4879 9.30377 34.4631 9.2627C34.4384 9.22984 34.1988 9.13948 33.9263 9.06555C33.6537 8.9834 33.4142 8.89304 33.3894 8.86019C33.3647 8.83554 33.183 8.76983 32.9765 8.72876L32.6048 8.65483V7.5623C32.6048 6.92979 32.6378 6.44514 32.6874 6.41228C32.737 6.37942 32.8195 6.20692 32.8856 6.0262C33.0178 5.65655 33.3647 5.24583 33.5546 5.23761C33.6207 5.23761 33.8685 5.13082 34.0915 5.00761C34.4136 4.82689 34.5127 4.72832 34.5292 4.5476C34.587 4.08759 34.4962 3.95616 34.0915 3.89866C33.885 3.8658 33.7198 3.8083 33.7198 3.77544C33.7198 3.74258 33.4803 3.66865 33.1912 3.61115C32.9021 3.55365 32.5718 3.45508 32.4561 3.39757C32.3405 3.34007 31.9606 3.22507 31.5972 3.14293C31.242 3.06078 30.9364 2.97042 30.9117 2.93757C30.8869 2.90471 30.5813 2.82256 30.2344 2.74042C29.8792 2.66649 29.5902 2.57613 29.5902 2.54327C29.5902 2.51041 29.3506 2.43648 29.0533 2.37898C28.756 2.32148 28.5165 2.24755 28.5165 2.20648C28.5165 2.17362 28.2026 2.08326 27.8144 2.00112C27.4262 1.91897 27.1124 1.82861 27.1124 1.80397C27.1124 1.77111 26.7985 1.67254 26.4103 1.59039C26.0222 1.50004 25.7083 1.40146 25.7083 1.37682C25.7083 1.35218 25.4027 1.26182 25.031 1.17967C24.6511 1.09753 24.329 1.00717 24.3042 0.974311C24.2794 0.941453 23.9821 0.851094 23.6435 0.768949C23.3049 0.686805 22.991 0.596446 22.9414 0.563588C22.8176 0.465014 22.4046 0.423942 21.9916 0.4568ZM3.49084 4.65439C3.49084 4.69546 3.77165 4.78582 4.11028 4.86796C4.44891 4.95011 4.72973 5.04047 4.72973 5.07332C4.72973 5.10618 5.02706 5.20475 5.39047 5.2869C5.75388 5.36904 6.05121 5.46762 6.05121 5.50047C6.05121 5.53333 6.24944 5.60726 6.48896 5.65655C6.72022 5.71405 6.93496 5.78798 6.95974 5.82084C6.98451 5.84548 7.26533 5.93584 7.57918 6.0262C7.90129 6.10834 8.19863 6.1987 8.23992 6.23156C8.28948 6.26442 8.59507 6.35478 8.92544 6.43692C9.24756 6.51085 9.52011 6.60121 9.52011 6.63407C9.52011 6.66693 9.81745 6.7655 10.1809 6.84765C10.5443 6.92979 10.8416 7.02836 10.8416 7.06122C10.8416 7.09408 11.1224 7.18444 11.461 7.26658C11.7997 7.34873 12.0805 7.43909 12.0805 7.46373C12.0805 7.49659 12.287 7.57052 12.5347 7.62802C12.7825 7.68552 12.989 7.75945 12.989 7.79231C12.989 7.81695 13.2863 7.90731 13.6498 7.98945C14.0132 8.0716 14.3353 8.17017 14.3518 8.20303C14.3766 8.2441 14.6739 8.33446 15.0125 8.41661C15.3512 8.49875 15.632 8.58911 15.632 8.63018C15.632 8.66304 15.6815 8.6959 15.7394 8.6959C15.8137 8.6959 15.8302 9.09019 15.7889 10.5195C15.7559 11.5299 15.7311 12.417 15.7228 12.4992C15.7146 12.6224 15.665 12.6388 15.409 12.5896C15.2355 12.5567 15.0786 12.5074 15.0538 12.4745C15.0291 12.4417 14.6822 12.3513 14.2692 12.2692C13.8645 12.187 13.5093 12.0885 13.4846 12.0556C13.4598 12.031 13.1294 11.9324 12.7412 11.8585C12.353 11.7763 12.0144 11.6777 11.9896 11.6367C11.9649 11.6038 11.651 11.5135 11.2959 11.4477C10.9324 11.3738 10.6186 11.2917 10.5938 11.2506C10.569 11.2177 10.2304 11.1192 9.83397 11.037C9.42926 10.9549 9.10715 10.8645 9.10715 10.8317C9.10715 10.7988 8.85111 10.7249 8.529 10.6674C8.21515 10.6099 7.95085 10.5359 7.95085 10.5113C7.95085 10.4784 7.62874 10.3881 7.23229 10.3059C6.82759 10.2156 6.48896 10.1252 6.46418 10.0924C6.4394 10.0677 6.12555 9.97735 5.76214 9.89521C5.39873 9.81306 4.99403 9.69806 4.85362 9.64056C4.72147 9.58306 4.33328 9.48449 4.01117 9.42698C3.6808 9.36948 3.40824 9.29555 3.40824 9.25448C3.40824 9.22162 3.35869 9.18876 3.30913 9.18876C3.12743 9.18055 2.87139 8.91769 2.7475 8.61375C2.68143 8.45768 2.60709 8.30982 2.5658 8.28518C2.53276 8.26053 2.45843 7.88267 2.40887 7.45551C2.3015 6.60121 2.36757 5.47583 2.53276 5.30333C2.59058 5.25404 2.65665 5.13904 2.68969 5.05689C2.72272 4.97475 2.86313 4.85975 2.99528 4.81046C3.13569 4.76117 3.24306 4.68724 3.24306 4.65439C3.24306 4.62153 3.30087 4.58867 3.36695 4.58867C3.43302 4.58867 3.49084 4.62153 3.49084 4.65439ZM31.9854 5.77155C31.9854 5.82905 31.9275 6.04263 31.8532 6.23978C31.7624 6.49442 31.7211 6.938 31.7128 7.79231L31.6963 8.9834L31.0768 9.09841C30.7382 9.16412 30.4409 9.23805 30.4161 9.27091C30.3913 9.30377 30.0196 9.39413 29.5902 9.47627C29.1607 9.55842 28.789 9.64877 28.7642 9.68163C28.7395 9.71449 28.3678 9.80485 27.9383 9.88699C27.5088 9.96914 27.1372 10.0595 27.1124 10.0924C27.0876 10.1252 26.7159 10.2156 26.2865 10.2895C25.857 10.3634 25.4688 10.462 25.4192 10.4949C25.3779 10.5359 25.0806 10.6099 24.7585 10.6674C24.4446 10.7249 24.1638 10.7988 24.139 10.8317C24.1143 10.8563 23.7343 10.9549 23.2966 11.037C22.8506 11.1192 22.4872 11.2177 22.4872 11.2424C22.4872 11.2752 22.1155 11.3656 21.6613 11.4477C21.207 11.5299 20.8353 11.6202 20.8353 11.6531C20.8353 11.686 20.4306 11.7763 19.9268 11.8585C19.4312 11.9406 19.0183 12.031 19.0183 12.0638C19.0183 12.0885 18.6549 12.187 18.2171 12.2692C17.7711 12.3513 17.3912 12.4417 17.3664 12.4745C17.3417 12.5074 17.1682 12.5649 16.9782 12.5978L16.6231 12.6553L16.6314 11.4724C16.6396 10.8317 16.6644 9.94449 16.6974 9.51734L16.747 8.73697L17.0608 8.71233C17.226 8.6959 17.3664 8.65483 17.3664 8.62197C17.3664 8.5809 17.8124 8.48232 18.3575 8.40018C18.9027 8.31803 19.3487 8.22767 19.3487 8.19482C19.3487 8.17017 19.8112 8.07981 20.3811 7.99767C20.951 7.91552 21.4135 7.82517 21.4135 7.79231C21.4135 7.75945 21.7356 7.68552 22.1403 7.62802C22.5367 7.57052 22.9001 7.48837 22.9414 7.45551C22.991 7.42266 23.4535 7.3323 23.9739 7.25015C24.4942 7.17622 24.9402 7.08586 24.965 7.05301C24.9897 7.02015 25.444 6.92979 25.9809 6.84765C26.5095 6.77372 26.9472 6.68336 26.9472 6.6505C26.9472 6.61764 27.4015 6.51907 27.9631 6.44514C28.5165 6.36299 28.9872 6.26442 29.012 6.23978C29.0368 6.20692 29.4911 6.11656 30.0279 6.03441C30.5565 5.95227 30.9942 5.8537 30.9942 5.81262C30.9942 5.75512 31.2338 5.71405 31.8037 5.67298C31.911 5.66476 31.9854 5.70584 31.9854 5.77155ZM32.0845 11.2424C32.4974 11.4313 32.8113 12.2281 32.8113 13.066C32.8113 13.5753 32.6626 14.5282 32.5718 14.6514C32.5305 14.6924 32.4809 14.8403 32.4479 14.9635C32.3488 15.3742 31.878 15.7521 31.3411 15.8589C31.0851 15.9082 30.8538 15.9739 30.8291 16.0068C30.8043 16.0314 30.4904 16.1218 30.1353 16.2039C29.7719 16.2778 29.4332 16.3764 29.3919 16.4093C29.3424 16.4503 29.1359 16.5078 28.9294 16.5407C28.7229 16.5736 28.4504 16.6475 28.31 16.705C28.1778 16.7625 27.7814 16.8775 27.4428 16.9596C27.1041 17.0336 26.8068 17.1239 26.782 17.1568C26.7572 17.1896 26.3938 17.28 25.9809 17.3621C25.5596 17.4443 25.2127 17.5429 25.2127 17.5675C25.2127 17.6004 24.8906 17.6907 24.4942 17.7729C24.0895 17.855 23.7509 17.9454 23.7261 17.9782C23.7013 18.0111 23.3874 18.1014 23.024 18.1754C22.6689 18.2493 22.3468 18.3397 22.322 18.3725C22.2972 18.4054 22.0412 18.4875 21.7438 18.545C21.4465 18.6025 21.1905 18.6765 21.1657 18.7175C21.1409 18.7504 20.8023 18.849 20.4058 18.9229C20.0011 19.005 19.679 19.1036 19.679 19.1365C19.679 19.1775 19.6212 19.2104 19.5551 19.2104C19.4065 19.2104 19.423 19.3829 19.3569 17.05L19.3074 15.1853L19.5964 15.1032C19.7534 15.0539 19.9516 15.021 20.0342 15.021C20.1085 15.021 20.1746 14.9882 20.1746 14.9553C20.1746 14.9142 20.4554 14.8157 20.794 14.7335C21.1327 14.6432 21.4135 14.5528 21.4135 14.5282C21.4135 14.5035 21.6943 14.4132 22.0329 14.3228C22.3716 14.2407 22.6524 14.1503 22.6524 14.1174C22.6524 14.0846 22.8836 14.0106 23.1727 13.9531C23.4535 13.8956 23.8334 13.7806 24.0152 13.6985C24.1969 13.6246 24.4859 13.5342 24.6594 13.5014C24.8246 13.4685 24.965 13.4192 24.965 13.3864C24.965 13.3535 25.2458 13.2631 25.5844 13.1728C25.923 13.0906 26.2039 13.0003 26.2039 12.9674C26.2039 12.9428 26.4847 12.8524 26.8233 12.7621C27.1619 12.6799 27.4428 12.5895 27.4428 12.5567C27.4428 12.532 27.7566 12.4335 28.1448 12.3513C28.533 12.261 28.8468 12.1624 28.8468 12.1378C28.8468 12.1049 29.1194 12.0145 29.4498 11.9406C29.7719 11.8585 30.0609 11.7681 30.0857 11.7352C30.1105 11.7106 30.317 11.6285 30.54 11.571C30.7712 11.5135 30.9695 11.4313 30.9942 11.4067C31.0355 11.3492 31.5889 11.1849 31.7954 11.1684C31.8532 11.1602 31.9771 11.2013 32.0845 11.2424ZM4.11854 12.3431C4.53977 12.417 4.97751 12.4745 5.09314 12.4745C5.20877 12.4745 5.30788 12.5074 5.30788 12.5485C5.30788 12.5896 5.74562 12.6881 6.28247 12.7703C6.81107 12.8524 7.26533 12.9428 7.29011 12.9756C7.31488 13.0003 7.76915 13.0906 8.306 13.1728C8.83459 13.2549 9.27233 13.3453 9.27233 13.3781C9.27233 13.411 9.62748 13.4849 10.057 13.5506C10.4864 13.6081 10.8416 13.6821 10.8416 13.7067C10.8416 13.7396 11.2876 13.8299 11.8327 13.9121C12.3778 13.986 12.8238 14.0846 12.8238 14.1174C12.8238 14.1503 13.2781 14.2407 13.8397 14.3228C14.3931 14.4049 14.8639 14.4953 14.8886 14.5282C14.9134 14.561 15.3594 14.6514 15.8798 14.7335C16.4001 14.8075 16.8709 14.906 16.9122 14.9389C16.9617 14.9717 17.3169 15.0457 17.7051 15.1032L18.4154 15.2017L18.4649 16.3107C18.564 18.274 18.5392 19.2104 18.3988 19.2104C18.3328 19.2104 18.275 19.1775 18.275 19.1447C18.275 19.1036 17.9033 19.005 17.449 18.9229C16.9948 18.8407 16.6231 18.7504 16.6231 18.7175C16.6231 18.6847 16.334 18.6107 15.9871 18.5532C15.632 18.504 15.3099 18.43 15.2603 18.389C15.219 18.3561 14.8226 18.2657 14.3931 18.1836C13.9636 18.1014 13.5919 18.0111 13.5672 17.9782C13.5424 17.9454 13.1707 17.855 12.7412 17.7729C12.3117 17.6907 11.9401 17.6004 11.9153 17.5675C11.8905 17.5347 11.5189 17.4443 11.0894 17.3621C10.6599 17.28 10.2882 17.1896 10.2634 17.1568C10.2387 17.1239 9.867 17.0336 9.43752 16.9514C9.00804 16.8693 8.63637 16.7789 8.61159 16.7461C8.58681 16.7132 8.33078 16.6475 8.03344 16.59C7.73611 16.5407 7.42226 16.4586 7.3314 16.4175C7.24055 16.3846 6.81107 16.2861 6.38159 16.2039C5.9521 16.13 5.58044 16.0396 5.55566 16.0068C5.53088 15.9739 5.16747 15.8835 4.75451 15.8014C4.33328 15.7275 3.98639 15.6289 3.98639 15.5878C3.98639 15.5468 3.9038 15.5139 3.80469 15.5139C3.44128 15.5139 3.42476 15.4482 3.42476 14.2078C3.42476 13.5424 3.39173 13.0085 3.35043 12.9756C3.30087 12.951 3.24306 12.7867 3.21002 12.6142C3.17698 12.4417 3.12743 12.2445 3.10265 12.1706C3.06135 12.072 3.08613 12.0638 3.21002 12.1295C3.29261 12.1788 3.70558 12.2774 4.11854 12.3431ZM2.58232 17.7154C2.58232 17.7564 2.7888 17.8386 3.03658 17.8961C3.28435 17.9536 3.49084 18.0275 3.49084 18.0604C3.49084 18.0932 3.70558 18.1589 3.96988 18.2165C4.22591 18.274 4.54803 18.3725 4.67191 18.43C4.7958 18.4957 5.16747 18.6107 5.49784 18.6847C5.82821 18.7668 6.10903 18.849 6.13381 18.8818C6.15859 18.9147 6.4394 19.005 6.75325 19.0872C7.07537 19.1693 7.34792 19.2679 7.3727 19.2925C7.39748 19.3254 7.68655 19.4158 8.01692 19.4979C8.33904 19.58 8.61159 19.6786 8.61159 19.7115C8.61159 19.7443 8.752 19.7936 8.92544 19.8265C9.09063 19.8593 9.3797 19.9497 9.56141 20.0318C9.74311 20.114 10.123 20.229 10.4121 20.2783C10.6929 20.3358 10.9242 20.4097 10.9242 20.4344C10.9242 20.4672 11.1967 20.5658 11.5271 20.6479C11.8492 20.7301 12.1383 20.8204 12.1631 20.8533C12.1879 20.8779 12.4687 20.9765 12.7825 21.0587C13.1046 21.1408 13.3772 21.2312 13.402 21.264C13.4268 21.2969 13.6993 21.379 14.0132 21.4612C14.3188 21.5351 14.6243 21.6501 14.6904 21.7158C14.8308 21.8555 14.8639 24.3855 14.7235 24.3855C14.6739 24.3855 14.6409 24.6566 14.6409 25.0344V25.6834L14.3353 25.6095C14.1618 25.5602 13.9636 25.5027 13.8975 25.478C13.7736 25.4287 12.7908 25.1577 11.7501 24.8948C11.4528 24.8209 11.1967 24.7387 11.172 24.7141C11.1472 24.6812 10.8251 24.5991 10.4452 24.5169C10.0652 24.4348 9.65226 24.3198 9.53663 24.2541C9.41274 24.1884 9.2393 24.1391 9.14845 24.1391C8.94196 24.1309 8.27296 23.9584 8.14081 23.868C8.09126 23.8351 7.76089 23.753 7.39748 23.6791C7.04233 23.6051 6.73673 23.523 6.71196 23.4901C6.68718 23.4573 6.35681 23.3669 5.96862 23.2848C5.58044 23.2026 5.23355 23.1123 5.18399 23.0712C5.14269 23.0383 4.8784 22.9644 4.60584 22.9069C4.33328 22.8494 4.09376 22.7755 4.06899 22.7508C4.02769 22.6851 3.30087 22.5126 2.77228 22.4387C2.62361 22.414 2.49972 22.373 2.49972 22.3401C2.49972 22.3072 2.36757 22.2333 2.21065 22.1758C2.05372 22.1183 1.92157 22.0197 1.92157 21.954C1.92157 21.8883 1.86376 21.8144 1.79768 21.7897C1.65728 21.7322 1.42602 21.034 1.42602 20.6726C1.42602 20.5494 1.39298 20.4426 1.34342 20.4426C1.29387 20.4426 1.26083 20.114 1.26083 19.6211C1.26083 19.1283 1.29387 18.7997 1.34342 18.7997C1.39298 18.7997 1.42602 18.734 1.42602 18.6436C1.42602 18.3807 1.66554 17.8961 1.79768 17.8961C1.87202 17.8961 1.94635 17.8386 1.97113 17.7729C2.02068 17.6414 2.58232 17.5922 2.58232 17.7154ZM30.9117 18.7093C30.9117 18.7586 30.8538 19.0379 30.7795 19.35C30.6804 19.7608 30.6556 20.1879 30.6804 20.9519L30.7134 21.9951L29.9453 22.1347C29.5241 22.2169 29.1772 22.3072 29.1772 22.3319C29.1772 22.3647 28.8055 22.4551 28.3513 22.5373C27.897 22.6194 27.5253 22.7098 27.5253 22.7426C27.5253 22.7755 27.2363 22.8494 26.8894 22.9069C26.5342 22.9644 26.2121 23.0383 26.1626 23.0794C26.1213 23.1123 25.7496 23.2026 25.3366 23.2848C24.9319 23.3587 24.5768 23.4491 24.552 23.4819C24.5272 23.5066 24.1308 23.6051 23.6683 23.6873C23.1975 23.7694 22.8176 23.8598 22.8176 23.8926C22.8176 23.9173 22.4541 24.0159 22.0164 24.098C21.5704 24.1801 21.1905 24.2705 21.1657 24.3034C21.1409 24.3362 20.7775 24.4266 20.348 24.5005C19.9268 24.5827 19.5138 24.6812 19.4395 24.7141C19.3652 24.7552 19.0513 24.8455 18.7292 24.9112C18.0354 25.0591 16.6809 25.3959 16.0449 25.5684C15.7972 25.6423 15.5824 25.6998 15.5742 25.6998C15.5576 25.6998 15.5494 24.9934 15.5494 24.1391C15.5494 23.1533 15.5824 22.5783 15.632 22.5783C15.6815 22.5783 15.7146 22.3894 15.7146 22.1676C15.7146 21.8555 15.7476 21.7569 15.8385 21.7569C15.9045 21.7569 15.9624 21.7322 15.9624 21.6912C15.9624 21.6583 16.4084 21.5597 16.9452 21.4776C17.4903 21.3954 17.9446 21.2969 17.9611 21.2476C17.9776 21.1983 18.3328 21.1572 18.7705 21.1408C19.5551 21.1244 20.505 20.9601 20.505 20.8533C20.505 20.7711 21.0748 20.6315 21.686 20.5658C21.9421 20.5329 22.1568 20.4754 22.1568 20.4426C22.1568 20.4015 22.6028 20.3111 23.1479 20.229C23.693 20.1468 24.139 20.0565 24.139 20.0236C24.139 19.999 24.4942 19.9251 24.9237 19.8593C25.3532 19.8018 25.7083 19.7279 25.7083 19.7033C25.7083 19.6704 25.8487 19.6211 26.0222 19.5965C26.1873 19.5718 26.6251 19.5061 26.9885 19.4568C27.3519 19.3993 27.6658 19.3336 27.6905 19.3008C27.7153 19.2679 28.1778 19.1693 28.7229 19.0872C29.2681 19.005 29.7306 18.9147 29.7554 18.8818C29.7801 18.849 30.0196 18.7832 30.2922 18.7422C30.5648 18.6929 30.8125 18.6518 30.8538 18.6436C30.8869 18.6436 30.9117 18.6682 30.9117 18.7093Z" fill="#007AFF"/>
<path d="M15.6333 21.4803C15.6333 21.7592 15.4059 21.9853 15.1255 21.9853C14.845 21.9853 14.6176 21.7592 14.6176 21.4803C14.6176 21.2013 14.845 20.9752 15.1255 20.9752C15.4059 20.9752 15.6333 21.2013 15.6333 21.4803Z" fill="white"/>
<path d="M19.4545 19.7912C19.4545 20.0701 19.2271 20.2963 18.9467 20.2963C18.6662 20.2963 18.4388 20.0701 18.4388 19.7912C18.4388 19.5123 18.6662 19.2861 18.9467 19.2861C19.2271 19.2861 19.4545 19.5123 19.4545 19.7912Z" fill="white"/>
<path d="M19.3332 15.0255C19.3332 15.3045 19.1058 15.5306 18.8254 15.5306C18.5449 15.5306 18.3175 15.3045 18.3175 15.0255C18.3175 14.7466 18.5449 14.5205 18.8254 14.5205C19.1058 14.5205 19.3332 14.7466 19.3332 15.0255Z" fill="white"/>
<path d="M34.436 4.34802C34.436 4.62695 34.2087 4.85308 33.9282 4.85308C33.6478 4.85308 33.4204 4.62695 33.4204 4.34802C33.4204 4.06908 33.6478 3.84295 33.9282 3.84295C34.2087 3.84295 34.436 4.06908 34.436 4.34802Z" fill="white"/>
<path d="M3.4418 4.10672C3.4418 4.38565 3.21444 4.61178 2.93398 4.61178C2.65352 4.61178 2.42616 4.38565 2.42616 4.10672C2.42616 3.82778 2.65352 3.60165 2.93398 3.60165C3.21444 3.60165 3.4418 3.82778 3.4418 4.10672Z" fill="white"/>
<path d="M22.7298 0.788847C22.7298 1.06779 22.5024 1.29391 22.222 1.29391C21.9415 1.29391 21.7142 1.06779 21.7142 0.788847C21.7142 0.509908 21.9415 0.283783 22.222 0.283783C22.5024 0.283783 22.7298 0.509908 22.7298 0.788847Z" fill="white"/>
<path d="M34.436 9.83758C34.436 10.1165 34.2087 10.3426 33.9282 10.3426C33.6478 10.3426 33.4204 10.1165 33.4204 9.83758C33.4204 9.55864 33.6478 9.33252 33.9282 9.33252C34.2087 9.33252 34.436 9.55864 34.436 9.83758Z" fill="white"/>
<path d="M33.3443 17.3782C33.3443 17.6571 33.1169 17.8833 32.8365 17.8833C32.556 17.8833 32.3286 17.6571 32.3286 17.3782C32.3286 17.0993 32.556 16.8731 32.8365 16.8731C33.1169 16.8731 33.3443 17.0993 33.3443 17.3782Z" fill="white"/>
<path d="M1.01564 16.3527C1.01564 16.6316 0.788281 16.8577 0.50782 16.8577C0.227359 16.8577 0 16.6316 0 16.3527C0 16.0737 0.227359 15.8476 0.50782 15.8476C0.788281 15.8476 1.01564 16.0737 1.01564 16.3527Z" fill="white"/>
<path d="M15.0874 27.2112C15.0874 27.4901 14.86 27.7162 14.5796 27.7162C14.2991 27.7162 14.0718 27.4901 14.0718 27.2112C14.0718 26.9322 14.2991 26.7061 14.5796 26.7061C14.86 26.7061 15.0874 26.9322 15.0874 27.2112Z" fill="white"/>
<path d="M33.8295 22.6868C33.8295 22.9657 33.6021 23.1918 33.3217 23.1918C33.0412 23.1918 32.8139 22.9657 32.8139 22.6868C32.8139 22.4078 33.0412 22.1817 33.3217 22.1817C33.6021 22.1817 33.8295 22.4078 33.8295 22.6868Z" fill="white"/>
<path d="M1.68283 22.4455C1.68283 22.7244 1.45548 22.9505 1.17501 22.9505C0.894554 22.9505 0.667195 22.7244 0.667195 22.4455C0.667195 22.1665 0.894554 21.9404 1.17501 21.9404C1.45548 21.9404 1.68283 22.1665 1.68283 22.4455Z" fill="white"/>
<path d="M1.13695 10.8631C1.13695 11.142 0.909589 11.3682 0.629128 11.3682C0.348667 11.3682 0.121308 11.142 0.121308 10.8631C0.121308 10.5842 0.348667 10.358 0.629128 10.358C0.909589 10.358 1.13695 10.5842 1.13695 10.8631Z" fill="white"/>
<path d="M16.7251 8.38978C16.7251 8.66872 16.4977 8.89485 16.2172 8.89485C15.9368 8.89485 15.7094 8.66872 15.7094 8.38978C15.7094 8.11085 15.9368 7.88472 16.2172 7.88472C16.4977 7.88472 16.7251 8.11085 16.7251 8.38978Z" fill="white"/>
</svg>
