<svg width="201" height="201" viewBox="0 0 201 201" fill="none" xmlns="http://www.w3.org/2000/svg">
<path d="M125.922 21.7157C124.734 21.8107 123.356 22.0958 122.833 22.3334C122.311 22.571 118.462 23.0937 114.28 23.5213C110.099 23.949 106.25 24.4717 105.727 24.7093C105.204 24.9469 101.26 25.4696 96.9361 25.9447C92.612 26.3724 88.9056 26.8951 88.6205 27.0852C88.3829 27.2752 84.3914 27.7979 79.8297 28.2731C75.268 28.7483 71.4191 29.271 71.2766 29.461C71.134 29.6036 67.2851 30.2213 62.7234 30.7915C45.9496 32.8348 41.578 33.4525 41.3404 33.7376C41.1978 33.9277 37.2063 34.4504 32.4546 34.9256C27.6553 35.4008 23.7588 35.971 23.7588 36.2086C23.7588 36.3986 22.951 36.5887 22.0007 36.5887C19.3872 36.6362 14.0652 37.8242 13.8751 38.4419C13.7801 38.727 13.4475 38.9646 13.1148 38.9646C12.3546 38.9646 9.59854 41.6731 9.26591 42.8135C9.07584 43.2887 8.79073 43.7164 8.55315 43.7164C8.31556 43.7164 7.84038 44.6192 7.50775 45.7121C7.22265 46.8525 6.69995 47.8979 6.41485 48.088C5.70208 48.6107 5.7496 65.7171 6.50988 66.5724C6.79499 66.9525 7.31768 68.3306 7.65031 69.6135C7.98293 70.944 8.55315 72.2745 8.88577 72.6071C9.21839 72.9398 9.5035 73.51 9.5035 73.8426C9.5035 74.1752 9.93116 74.8405 10.4539 75.3157C12.2595 76.9788 11.6893 77.6915 7.84038 78.5944C5.84463 79.0696 3.94392 79.7348 3.56378 80.1625C2.51839 81.2079 2.75598 84.5816 3.84889 84.5816C4.08648 84.5816 4.70421 85.0093 5.2269 85.532C5.7496 86.0547 6.60492 86.4823 7.12761 86.4823C7.65031 86.4823 8.07797 86.6724 8.07797 86.9575C8.07797 87.1951 8.36307 87.4327 8.6957 87.4327C9.74109 87.4327 11.7844 89.7135 12.4021 91.5667C12.6872 92.5646 13.1624 93.5149 13.4475 93.6575C13.6851 93.8476 14.0177 96.7937 14.1602 100.215C14.3503 105.775 14.3028 106.44 13.59 106.44C13.1624 106.44 12.8297 106.63 12.8297 106.867C12.8297 107.105 11.2141 107.675 9.26591 108.15C7.31768 108.626 5.70208 109.148 5.70208 109.338C5.70208 109.576 4.79924 109.956 3.70634 110.289C1.1879 110.954 -0.0950822 112.237 0.0949887 113.9C0.237542 114.993 0.570166 115.278 2.61343 115.753C3.94392 116.038 4.70421 116.323 4.4191 116.371C4.08648 116.371 3.46875 117.131 3.04109 117.939C2.61343 118.794 2.09073 119.602 1.85314 119.745C1.66307 119.887 1.14038 121.265 0.712719 122.833C-0.617777 128.013 0.047471 143.931 1.66307 145.594C1.9957 145.927 2.42336 146.83 2.56591 147.638C2.75598 148.445 3.27868 149.491 3.75385 150.014C4.22903 150.489 4.89428 151.392 5.17939 151.962C5.46449 152.532 6.03471 153.007 6.41485 153.007C6.79499 153.007 7.12761 153.197 7.12761 153.435C7.12761 153.957 9.78861 155.383 10.7865 155.383C11.1191 155.383 11.4042 155.573 11.4042 155.811C11.4042 156.048 12.5922 156.523 14.0177 156.856C15.4432 157.189 16.6312 157.569 16.6312 157.759C16.6312 157.949 17.9617 158.377 19.5773 158.709C21.2404 158.994 23.4262 159.66 24.4716 160.135C25.517 160.61 27.1326 161.133 28.0354 161.323C28.9383 161.513 30.5539 162.036 31.5992 162.511C32.6446 162.986 34.7354 163.651 36.256 163.936C37.729 164.269 38.9645 164.697 38.9645 164.887C38.9645 165.077 40.6751 165.599 42.7659 166.075C44.8567 166.55 46.5673 167.12 46.5673 167.31C46.5673 167.5 47.3751 167.785 48.373 167.975C49.3234 168.165 50.9865 168.688 52.0319 169.163C53.0773 169.638 55.168 170.304 56.6886 170.589C58.1617 170.921 59.3971 171.349 59.3971 171.539C59.3971 171.682 60.9652 172.204 62.8659 172.727C64.7191 173.202 66.5248 173.725 66.7624 173.915C67.0475 174.105 68.7581 174.628 70.5638 175.103C72.417 175.578 73.9851 176.101 74.1276 176.291C74.2702 176.433 75.8858 177.004 77.6914 177.479C79.5446 177.954 81.1602 178.572 81.3503 178.857C81.7305 179.427 86.8148 179.379 87.5751 178.762C87.9078 178.524 90.2361 177.906 92.8021 177.431C95.3205 176.956 97.4113 176.433 97.4113 176.291C97.4113 176.101 99.5971 175.578 102.306 175.103C104.967 174.628 107.247 174.057 107.39 173.915C107.533 173.772 109.813 173.202 112.522 172.727C115.183 172.252 117.369 171.729 117.369 171.539C117.369 171.397 119.46 170.874 122.025 170.399C124.544 169.923 126.872 169.353 127.11 169.116C127.395 168.926 129.106 168.498 130.911 168.165C132.764 167.88 134.333 167.453 134.475 167.262C134.618 167.072 136.661 166.597 138.989 166.122C141.365 165.694 143.694 165.124 144.216 164.887C144.739 164.697 147.21 164.126 149.681 163.651C152.152 163.223 154.29 162.701 154.433 162.511C154.575 162.321 156.713 161.798 159.184 161.323C161.655 160.848 163.936 160.325 164.174 160.135C164.459 159.945 166.692 159.422 169.163 158.947C171.634 158.519 173.915 157.997 174.152 157.759C174.438 157.569 176.196 157.141 178.096 156.809C179.95 156.476 181.518 156.048 181.518 155.858C181.518 155.668 183.751 155.145 186.507 154.623C189.263 154.148 191.496 153.625 191.496 153.435C191.496 153.245 192.352 153.007 193.445 152.817C195.155 152.532 195.345 152.389 195.203 151.297C195.108 150.536 194.538 149.776 193.635 149.301C192.874 148.873 192.162 148.35 192.067 148.16C191.972 148.018 190.689 147.495 189.216 147.02C187.743 146.545 186.412 146.022 186.269 145.879C186.127 145.689 184.891 145.262 183.561 144.929L181.043 144.359V139.37C181.043 134.38 182.135 127.823 182.991 127.823C183.228 127.823 183.656 127.348 183.941 126.73C184.416 125.732 185.604 124.972 188.075 124.259C188.645 124.116 189.121 123.736 189.121 123.499C189.121 123.261 189.453 123.071 189.833 123.071C191.021 123.071 192.114 120.885 191.782 119.127C191.544 117.749 191.211 117.511 189.358 116.989L187.22 116.418L189.025 114.66C189.976 113.662 191.116 112.284 191.449 111.524C191.829 110.811 192.304 110.241 192.447 110.241C192.637 110.241 193.064 108.911 193.397 107.248C193.73 105.632 194.252 104.159 194.538 103.969C195.25 103.494 195.25 86.1022 194.585 85.627C194.3 85.4369 193.777 84.3915 193.445 83.2986C193.064 82.2057 192.494 81.2079 192.162 81.0653C191.782 80.9227 191.496 80.4951 191.496 80.1625C191.496 79.6873 192.637 79.3071 195.06 78.8795C197.008 78.5469 198.624 78.1192 198.624 77.8816C198.624 77.6915 199.099 77.454 199.717 77.3589C200.525 77.2639 200.762 76.8837 200.762 75.7908C200.762 74.6979 200.43 74.2227 199.337 73.7001C198.577 73.3199 197.816 72.8923 197.674 72.6547C197.531 72.4646 196.153 71.9419 194.585 71.5142C193.017 71.0391 191.639 70.5164 191.496 70.3263C191.354 70.1837 190.308 69.8036 189.121 69.566L186.982 69.1384V62.8185C186.982 59.1596 187.172 56.3561 187.457 56.166C187.743 55.9759 188.218 54.9781 188.598 53.9327C189.358 51.7944 191.354 49.4185 192.447 49.371C192.827 49.371 194.252 48.7533 195.535 48.0405C197.389 46.9951 197.959 46.4249 198.054 45.3795C198.386 42.7185 197.864 41.9582 195.535 41.6256C194.347 41.4355 193.397 41.1029 193.397 40.9128C193.397 40.7227 192.019 40.2951 190.356 39.9625C188.693 39.6298 186.792 39.0596 186.127 38.727C185.462 38.3944 183.276 37.7291 181.185 37.254C179.142 36.7788 177.384 36.2561 177.241 36.066C177.099 35.8759 175.34 35.4008 173.345 34.9256C171.301 34.4979 169.638 33.9752 169.638 33.7852C169.638 33.5951 168.26 33.1674 166.55 32.8348C164.839 32.5022 163.461 32.0745 163.461 31.8369C163.461 31.6469 161.655 31.1242 159.422 30.649C157.189 30.1738 155.383 29.6511 155.383 29.5086C155.383 29.3185 153.577 28.7483 151.344 28.2731C149.111 27.7504 147.305 27.1802 147.305 27.0376C147.305 26.8951 145.547 26.3724 143.408 25.8972C141.223 25.422 139.369 24.8994 139.227 24.7093C139.084 24.5192 137.374 23.9965 135.425 23.5213C133.477 23.0462 131.672 22.5235 131.386 22.3334C130.674 21.7632 128.298 21.5256 125.922 21.7157ZM19.4822 45.9972C19.4822 46.2348 21.0978 46.7575 23.0461 47.2327C24.9943 47.7079 26.6099 48.2305 26.6099 48.4206C26.6099 48.6107 28.3205 49.1809 30.4113 49.6561C32.5021 50.1313 34.2127 50.7015 34.2127 50.8915C34.2127 51.0816 35.3531 51.5093 36.7312 51.7944C38.0617 52.127 39.2971 52.5547 39.4397 52.7447C39.5822 52.8873 41.1978 53.41 43.0035 53.9327C44.8567 54.4079 46.5673 54.9305 46.8049 55.1206C47.09 55.3107 48.8482 55.8334 50.7489 56.3086C52.6021 56.7362 54.1702 57.2589 54.1702 57.449C54.1702 57.6391 55.8808 58.2093 57.9716 58.6844C60.0624 59.1596 61.773 59.7298 61.773 59.9199C61.773 60.11 63.3886 60.6327 65.3368 61.1079C67.2851 61.583 68.9007 62.1057 68.9007 62.2483C68.9007 62.4384 70.0886 62.866 71.5141 63.1986C72.9397 63.5313 74.1276 63.9589 74.1276 64.149C74.1276 64.2915 75.8383 64.8142 77.929 65.2894C80.0198 65.7646 81.873 66.3348 81.968 66.5249C82.1106 66.7625 83.8212 67.2852 85.7695 67.7603C87.7177 68.2355 89.3333 68.7582 89.3333 68.9958C89.3333 69.1859 89.6184 69.3759 89.951 69.3759C90.3787 69.3759 90.4737 71.6568 90.2361 79.9249C90.0461 85.7696 89.9035 90.9015 89.856 91.3766C89.8085 92.0894 89.5234 92.1844 88.0503 91.8993C87.0524 91.7093 86.1496 91.4242 86.007 91.2341C85.8645 91.044 83.8688 90.5213 81.4929 90.0462C79.1645 89.571 77.1212 89.0008 76.9787 88.8107C76.8361 88.6681 74.9354 88.0979 72.7021 87.6703C70.4688 87.1951 68.5205 86.6249 68.378 86.3873C68.2354 86.1972 66.4297 85.6745 64.3865 85.2944C62.2957 84.8667 60.49 84.3915 60.3475 84.154C60.2049 83.9639 58.2567 83.3937 55.9758 82.9185C53.6475 82.4433 51.7943 81.9206 51.7943 81.7306C51.7943 81.5405 50.3212 81.1128 48.468 80.7802C46.6624 80.4476 45.1418 80.0199 45.1418 79.8774C45.1418 79.6873 43.2886 79.1646 41.0078 78.6894C38.6794 78.1667 36.7312 77.644 36.5886 77.454C36.4461 77.3114 34.6404 76.7887 32.5496 76.3135C30.4588 75.8383 28.1305 75.1731 27.3226 74.8405C26.5624 74.5079 24.329 73.9376 22.4758 73.605C20.5751 73.2724 19.007 72.8447 19.007 72.6071C19.007 72.4171 18.7219 72.227 18.4368 72.227C17.3914 72.1795 15.9184 70.6589 15.2056 68.9008C14.8255 67.9979 14.3978 67.1426 14.1602 67.0001C13.9702 66.8575 13.5425 64.6717 13.2574 62.2008C12.6397 57.2589 13.0198 50.749 13.9702 49.7511C14.3028 49.466 14.6829 48.8008 14.873 48.3256C15.0631 47.8504 15.8709 47.1852 16.6312 46.9001C17.439 46.6149 18.0567 46.1873 18.0567 45.9972C18.0567 45.8071 18.3893 45.6171 18.7695 45.6171C19.1496 45.6171 19.4822 45.8071 19.4822 45.9972ZM183.418 52.4596C183.418 52.7923 183.086 54.0277 182.658 55.1681C182.135 56.6412 181.898 59.2071 181.85 64.149L181.755 71.0391L178.191 71.7043C176.243 72.0844 174.533 72.5121 174.39 72.7022C174.247 72.8923 172.109 73.4149 169.638 73.8901C167.167 74.3653 165.029 74.888 164.886 75.0781C164.744 75.2681 162.606 75.7908 160.135 76.266C157.664 76.7412 155.525 77.2639 155.383 77.454C155.24 77.644 153.102 78.1667 150.631 78.5944C148.16 79.022 145.927 79.5923 145.642 79.7823C145.404 80.0199 143.694 80.4476 141.84 80.7802C140.035 81.1128 138.419 81.5405 138.277 81.7306C138.134 81.8731 135.948 82.4433 133.43 82.9185C130.864 83.3937 128.773 83.9639 128.773 84.1064C128.773 84.2965 126.635 84.8192 124.021 85.2944C121.408 85.7696 119.269 86.2923 119.269 86.4823C119.269 86.6724 116.941 87.1951 114.043 87.6703C111.191 88.1454 108.816 88.6681 108.816 88.8582C108.816 89.0008 106.725 89.571 104.206 90.0462C101.64 90.5213 99.4546 91.044 99.312 91.2341C99.1695 91.4242 98.1716 91.7568 97.0787 91.9469L95.0354 92.2795L95.0829 85.4369C95.1305 81.7306 95.273 76.5986 95.4631 74.1277L95.7482 69.6135L97.5539 69.471C98.5042 69.3759 99.312 69.1384 99.312 68.9483C99.312 68.7107 101.878 68.1405 105.014 67.6653C108.15 67.1901 110.716 66.6674 110.716 66.4774C110.716 66.3348 113.377 65.8121 116.656 65.3369C119.935 64.8618 122.596 64.3391 122.596 64.149C122.596 63.9589 124.449 63.5313 126.777 63.1986C129.058 62.866 131.149 62.3908 131.386 62.2008C131.672 62.0107 134.333 61.488 137.326 61.0128C140.32 60.5852 142.886 60.0625 143.028 59.8724C143.171 59.6823 145.784 59.1596 148.873 58.6844C151.914 58.2568 154.433 57.7341 154.433 57.544C154.433 57.354 157.046 56.7837 160.277 56.3561C163.461 55.8809 166.169 55.3107 166.312 55.1681C166.455 54.9781 169.068 54.4554 172.157 53.9802C175.198 53.505 177.716 52.9348 177.716 52.6972C177.716 52.3646 179.094 52.127 182.373 51.8894C182.991 51.8419 183.418 52.0795 183.418 52.4596ZM183.989 84.1064C186.365 85.1993 188.17 89.8086 188.17 94.6554C188.17 97.6015 187.315 103.114 186.792 103.826C186.555 104.064 186.269 104.919 186.079 105.632C185.509 108.008 182.801 110.194 179.712 110.811C178.239 111.097 176.908 111.477 176.766 111.667C176.623 111.809 174.818 112.332 172.774 112.807C170.684 113.235 168.735 113.805 168.498 113.995C168.213 114.233 167.025 114.565 165.837 114.755C164.649 114.945 163.081 115.373 162.273 115.706C161.513 116.038 159.232 116.704 157.284 117.179C155.335 117.606 153.625 118.129 153.482 118.319C153.34 118.509 151.249 119.032 148.873 119.507C146.45 119.982 144.454 120.553 144.454 120.695C144.454 120.885 142.601 121.408 140.32 121.883C137.991 122.358 136.043 122.881 135.901 123.071C135.758 123.261 133.952 123.784 131.862 124.211C129.818 124.639 127.965 125.162 127.823 125.352C127.68 125.542 126.207 126.017 124.496 126.35C122.786 126.682 121.313 127.11 121.17 127.348C121.028 127.538 119.079 128.108 116.799 128.536C114.47 129.011 112.617 129.581 112.617 129.771C112.617 130.009 112.284 130.199 111.904 130.199C111.049 130.199 111.144 131.197 110.764 117.701L110.479 106.915L112.142 106.44C113.045 106.155 114.185 105.965 114.66 105.965C115.088 105.965 115.468 105.775 115.468 105.584C115.468 105.347 117.084 104.777 119.032 104.301C120.98 103.779 122.596 103.256 122.596 103.114C122.596 102.971 124.211 102.448 126.16 101.926C128.108 101.45 129.723 100.928 129.723 100.738C129.723 100.548 131.054 100.12 132.717 99.7873C134.333 99.4547 136.518 98.7894 137.564 98.3142C138.609 97.8866 140.272 97.3639 141.27 97.1738C142.221 96.9837 143.028 96.6986 143.028 96.5086C143.028 96.3185 144.644 95.7958 146.592 95.2731C148.54 94.7979 150.156 94.2752 150.156 94.0852C150.156 93.9426 151.772 93.4199 153.72 92.8972C155.668 92.422 157.284 91.8993 157.284 91.7093C157.284 91.5667 159.089 90.9965 161.323 90.5213C163.556 89.9986 165.362 89.4284 165.362 89.2859C165.362 89.0958 166.93 88.5731 168.83 88.1454C170.684 87.6703 172.347 87.1476 172.489 86.9575C172.632 86.8149 173.82 86.3398 175.103 86.0071C176.433 85.6745 177.574 85.1993 177.716 85.0568C177.954 84.7242 181.138 83.7738 182.325 83.6788C182.658 83.6313 183.371 83.8689 183.989 84.1064ZM23.0936 90.4738C25.517 90.9015 28.0354 91.2341 28.7007 91.2341C29.3659 91.2341 29.9361 91.4242 29.9361 91.6618C29.9361 91.8993 32.4546 92.4696 35.5432 92.9447C38.5844 93.4199 41.1978 93.9426 41.3404 94.1327C41.4829 94.2752 44.0964 94.7979 47.1851 95.2731C50.2262 95.7483 52.7446 96.271 52.7446 96.461C52.7446 96.6511 54.7879 97.0788 57.2588 97.4589C59.7297 97.7915 61.773 98.2192 61.773 98.3618C61.773 98.5518 64.339 99.0745 67.4751 99.5497C70.6113 99.9774 73.1773 100.548 73.1773 100.738C73.1773 100.928 75.7907 101.45 79.0219 101.926C82.2056 102.401 84.9141 102.923 85.0567 103.114C85.1992 103.304 87.7652 103.826 90.7588 104.301C93.7524 104.729 96.4609 105.299 96.6985 105.489C96.9836 105.679 99.0269 106.107 101.26 106.44L105.347 107.01L105.632 113.425C106.202 124.782 106.06 130.199 105.252 130.199C104.872 130.199 104.539 130.009 104.539 129.818C104.539 129.581 102.401 129.011 99.7872 128.536C97.1737 128.06 95.0354 127.538 95.0354 127.348C95.0354 127.157 93.3723 126.73 91.3765 126.397C89.3333 126.112 87.4801 125.684 87.195 125.447C86.9574 125.257 84.6766 124.734 82.2056 124.259C79.7347 123.784 77.5964 123.261 77.4539 123.071C77.3113 122.881 75.173 122.358 72.7021 121.883C70.2312 121.408 68.0929 120.885 67.9503 120.695C67.8078 120.505 65.6695 119.982 63.1985 119.507C60.7276 119.032 58.5893 118.509 58.4468 118.319C58.3042 118.129 56.1659 117.606 53.695 117.131C51.2241 116.656 49.0858 116.133 48.9432 115.943C48.8007 115.753 47.3276 115.373 45.617 115.04C43.9063 114.755 42.1007 114.28 41.578 114.043C41.0553 113.853 38.5844 113.282 36.1134 112.807C33.6425 112.379 31.5042 111.857 31.3617 111.667C31.2191 111.477 29.1283 110.954 26.7524 110.479C24.329 110.051 22.3333 109.481 22.3333 109.243C22.3333 109.006 21.8581 108.816 21.2879 108.816C19.1971 108.816 19.1021 108.436 19.1021 101.26C19.1021 97.4114 18.912 94.3227 18.6744 94.1327C18.3893 93.9901 18.0567 93.0398 17.8666 92.0419C17.6765 91.044 17.3914 89.9036 17.2489 89.4759C17.0113 88.9057 17.1539 88.8582 17.8666 89.2383C18.3418 89.5235 20.7177 90.0937 23.0936 90.4738ZM14.2553 121.55C14.2553 121.788 15.4432 122.263 16.8687 122.596C18.2943 122.928 19.4822 123.356 19.4822 123.546C19.4822 123.736 20.7177 124.116 22.2383 124.449C23.7113 124.782 25.5645 125.352 26.2773 125.684C26.99 126.065 29.1283 126.73 31.029 127.157C32.9297 127.633 34.5453 128.108 34.6879 128.298C34.8305 128.488 36.4461 129.011 38.2517 129.486C40.1049 129.961 41.673 130.531 41.8156 130.674C41.9581 130.864 43.6212 131.387 45.5219 131.862C47.3751 132.337 48.9432 132.907 48.9432 133.097C48.9432 133.287 49.751 133.572 50.7489 133.762C51.6992 133.953 53.3624 134.475 54.4078 134.95C55.4531 135.426 57.639 136.091 59.3021 136.376C60.9177 136.709 62.2482 137.136 62.2482 137.279C62.2482 137.469 63.8163 138.039 65.717 138.514C67.5702 138.989 69.2333 139.512 69.3758 139.702C69.5184 139.845 71.134 140.415 72.9397 140.89C74.7929 141.365 76.3609 141.888 76.5035 142.078C76.6461 142.268 78.2141 142.743 80.0198 143.218C81.778 143.646 83.5361 144.311 83.9163 144.692C84.7241 145.499 84.9141 160.135 84.1063 160.135C83.8212 160.135 83.6312 161.703 83.6312 163.889V167.643L81.873 167.215C80.8751 166.93 79.7347 166.597 79.3546 166.455C78.6418 166.17 72.9872 164.601 67 163.081C65.2893 162.653 63.8163 162.178 63.6737 162.036C63.5312 161.845 61.678 161.37 59.4922 160.895C57.3063 160.42 54.9305 159.755 54.2652 159.375C53.5524 158.994 52.5546 158.709 52.0319 158.709C50.8439 158.662 46.995 157.664 46.2347 157.141C45.9496 156.951 44.0489 156.476 41.9581 156.048C39.9148 155.621 38.1567 155.145 38.0141 154.955C37.8716 154.765 35.9709 154.243 33.7375 153.767C31.5042 153.292 29.5085 152.77 29.2234 152.532C28.9858 152.342 27.4652 151.914 25.8971 151.582C24.329 151.249 22.951 150.821 22.8085 150.679C22.5709 150.299 18.3893 149.301 15.3482 148.873C14.4929 148.731 13.7801 148.493 13.7801 148.303C13.7801 148.113 13.0198 147.685 12.117 147.353C11.2141 147.02 10.4539 146.45 10.4539 146.07C10.4539 145.689 10.1212 145.262 9.74109 145.119C8.93329 144.787 7.60279 140.748 7.60279 138.657C7.60279 137.944 7.41272 137.326 7.12761 137.326C6.84251 137.326 6.65244 135.426 6.65244 132.575C6.65244 129.723 6.84251 127.823 7.12761 127.823C7.41272 127.823 7.60279 127.443 7.60279 126.92C7.60279 125.399 8.9808 122.596 9.74109 122.596C10.1687 122.596 10.5964 122.263 10.739 121.883C11.0241 121.123 14.2553 120.838 14.2553 121.55ZM177.241 127.3C177.241 127.585 176.908 129.201 176.481 131.006C175.911 133.382 175.768 135.853 175.911 140.272L176.101 146.307L171.682 147.115C169.258 147.59 167.262 148.113 167.262 148.255C167.262 148.445 165.124 148.968 162.511 149.443C159.897 149.918 157.759 150.441 157.759 150.631C157.759 150.821 156.096 151.249 154.1 151.582C152.057 151.914 150.204 152.342 149.918 152.579C149.681 152.77 147.543 153.292 145.167 153.767C142.838 154.195 140.795 154.718 140.652 154.908C140.51 155.05 138.229 155.621 135.568 156.096C132.86 156.571 130.674 157.094 130.674 157.284C130.674 157.426 128.583 157.997 126.064 158.472C123.499 158.947 121.313 159.47 121.17 159.66C121.028 159.85 118.937 160.372 116.466 160.8C114.043 161.275 111.667 161.845 111.239 162.036C110.811 162.273 109.006 162.796 107.152 163.176C103.161 164.031 95.368 165.979 91.7092 166.977C90.2836 167.405 89.0482 167.738 89.0007 167.738C88.9056 167.738 88.8581 163.651 88.8581 158.709C88.8581 153.007 89.0482 149.681 89.3333 149.681C89.6184 149.681 89.8085 148.588 89.8085 147.305C89.8085 145.499 89.9985 144.929 90.5212 144.929C90.9014 144.929 91.234 144.787 91.234 144.549C91.234 144.359 93.8 143.789 96.8886 143.314C100.025 142.838 102.638 142.268 102.733 141.983C102.828 141.698 104.872 141.46 107.39 141.365C111.904 141.27 117.369 140.32 117.369 139.702C117.369 139.227 120.647 138.419 124.164 138.039C125.637 137.849 126.872 137.516 126.872 137.326C126.872 137.089 129.438 136.566 132.574 136.091C135.711 135.616 138.277 135.093 138.277 134.903C138.277 134.76 140.32 134.333 142.791 133.953C145.262 133.62 147.305 133.192 147.305 133.05C147.305 132.86 148.113 132.575 149.111 132.432C150.061 132.289 152.579 131.909 154.67 131.624C156.761 131.292 158.567 130.911 158.709 130.721C158.852 130.531 161.513 129.961 164.649 129.486C167.785 129.011 170.446 128.488 170.589 128.298C170.731 128.108 172.109 127.728 173.677 127.49C175.245 127.205 176.671 126.967 176.908 126.92C177.099 126.92 177.241 127.062 177.241 127.3Z" fill="#737585" fill-opacity="0.8"/>
</svg>
