<svg width="20" height="21" viewBox="0 0 20 21" fill="none" xmlns="http://www.w3.org/2000/svg">
<mask id="mask0_34_711" style="mask-type:alpha" maskUnits="userSpaceOnUse" x="-1" y="0" width="21" height="21">
<path d="M15.2503 5.98739C15.2503 6.5241 14.821 6.95346 14.2843 6.95346C13.7476 6.95346 13.3182 6.5241 13.3182 5.98739C13.3182 5.45068 13.7476 5.02132 14.2843 5.02132C14.821 5.02132 15.2503 5.45068 15.2503 5.98739ZM18.0412 10.2811C18.0412 12.4637 18.0323 12.741 17.9965 13.5997C17.9607 14.4584 17.8176 15.0399 17.6208 15.5497C17.4151 16.0775 17.1378 16.5248 16.6905 16.972C16.2432 17.4193 15.796 17.6966 15.2682 17.9023C14.7584 18.0991 14.168 18.2333 13.3182 18.278C12.4595 18.3138 12.1822 18.3227 9.99955 18.3227C7.81694 18.3227 7.53964 18.3138 6.68091 18.278C5.82218 18.2422 5.24075 18.0991 4.73087 17.9023C4.20311 17.6966 3.75586 17.4193 3.3086 16.972C2.86134 16.5248 2.58404 16.0775 2.37831 15.5497C2.18151 15.0399 2.04734 14.4495 2.00261 13.5997C1.96683 12.741 1.95789 12.4637 1.95789 10.2811C1.95789 8.09844 1.96683 7.82114 2.00261 6.96241C2.03839 6.10368 2.18151 5.52224 2.37831 5.01237C2.58404 4.48461 2.86134 4.03735 3.3086 3.59009C3.75586 3.14284 4.20311 2.86554 4.73087 2.6598C5.24075 2.46301 5.83112 2.32883 6.68091 2.28411C7.53964 2.24832 7.81694 2.23938 9.99955 2.23938C12.1822 2.23938 12.4595 2.24832 13.3182 2.28411C14.1769 2.31989 14.7584 2.46301 15.2682 2.6598C15.796 2.86554 16.2432 3.14284 16.6905 3.59009C17.1378 4.03735 17.4151 4.48461 17.6208 5.01237C17.8176 5.52224 17.9518 6.11262 17.9965 6.96241C18.0323 7.82114 18.0412 8.09844 18.0412 10.2811ZM16.5921 10.2811C16.5921 8.13422 16.5921 7.87481 16.5474 7.02503C16.5116 6.23785 16.3774 5.81743 16.2701 5.53119C16.127 5.15549 15.9481 4.88714 15.6708 4.60984C15.3935 4.33254 15.1251 4.15364 14.7494 4.01052C14.4632 3.90317 14.0427 3.769 13.2556 3.73322C12.4058 3.69744 12.1553 3.68849 9.99955 3.68849C7.84377 3.68849 7.59331 3.68849 6.74353 3.73322C5.95635 3.769 5.53593 3.90317 5.24969 4.01052C4.874 4.15364 4.60564 4.33254 4.32834 4.60984C4.05104 4.88714 3.87214 5.15549 3.72902 5.53119C3.62168 5.81743 3.4875 6.23785 3.45172 7.02503C3.41594 7.87481 3.407 8.12528 3.407 10.2811C3.407 12.4368 3.407 12.6873 3.45172 13.5371C3.4875 14.3243 3.62168 14.7447 3.72902 15.0309C3.87214 15.4066 4.05104 15.675 4.32834 15.9523C4.60564 16.2296 4.874 16.4085 5.24969 16.5516C5.53593 16.6589 5.95635 16.7931 6.74353 16.8289C7.59331 16.8647 7.84377 16.8736 9.99955 16.8736C12.1553 16.8736 12.4058 16.8736 13.2556 16.8289C14.0427 16.7931 14.4632 16.6589 14.7494 16.5516C15.1251 16.4085 15.3935 16.2296 15.6708 15.9523C15.9481 15.675 16.127 15.4066 16.2701 15.0309C16.3774 14.7447 16.5116 14.3243 16.5474 13.5371C16.5832 12.6873 16.5921 12.4368 16.5921 10.2811ZM14.1233 10.2811C14.1233 12.5621 12.2716 14.4137 9.9906 14.4137C7.7096 14.4137 5.85796 12.5621 5.85796 10.2811C5.85796 8.00004 7.7096 6.1484 9.9906 6.1484C12.2716 6.1484 14.1233 8.00004 14.1233 10.2811ZM12.6741 10.2811C12.6741 8.79616 11.4755 7.59751 9.9906 7.59751C8.50571 7.59751 7.30707 8.79616 7.30707 10.2811C7.30707 11.7659 8.50571 12.9646 9.9906 12.9646C11.4755 12.9646 12.6741 11.7659 12.6741 10.2811Z" fill="#171719"/>
</mask>
<g mask="url(#mask0_34_711)">
<rect x="-0.000366211" y="0.281006" width="20" height="20" fill="#989BA2"/>
</g>
</svg>
