<svg width="323" height="254" viewBox="0 0 323 254" fill="none" xmlns="http://www.w3.org/2000/svg">
<path d="M202.637 0.779327C200.735 0.931534 198.528 1.38815 197.691 1.76868C196.854 2.14919 190.689 2.98633 183.992 3.67126C177.295 4.35619 171.131 5.19333 170.293 5.57385C169.456 5.95436 163.14 6.7915 156.214 7.55254C149.289 8.23747 143.353 9.07462 142.896 9.37903C142.516 9.68344 136.123 10.5206 128.817 11.2816C121.511 12.0426 115.347 12.8798 115.118 13.1842C114.89 13.4125 108.726 14.4019 101.42 15.3151C74.5552 18.5876 67.5537 19.5769 67.1732 20.0335C66.9449 20.3379 60.5522 21.1751 52.9418 21.9361C45.2554 22.6971 39.0149 23.6104 39.0149 23.9909C39.0149 24.2953 37.7211 24.5997 36.199 24.5997C32.0133 24.6758 23.4898 26.5784 23.1853 27.5678C23.0331 28.0244 22.5004 28.4049 21.9677 28.4049C20.75 28.4049 16.336 32.7428 15.8033 34.5693C15.4989 35.3303 15.0423 36.0153 14.6617 36.0153C14.2812 36.0153 13.5202 37.4612 12.9875 39.2116C12.5308 41.0381 11.6937 42.7124 11.2371 43.0168C10.0955 43.8539 10.1716 71.2512 11.3893 72.6211C11.8459 73.2299 12.683 75.4369 13.2158 77.4917C13.7485 79.6226 14.6617 81.7535 15.1945 82.2862C15.7272 82.8189 16.1838 83.7322 16.1838 84.2649C16.1838 84.7976 16.8687 85.8631 17.7059 86.6241C20.5978 89.2877 19.6846 90.4293 13.5202 91.8753C10.3238 92.6363 7.2797 93.7018 6.67087 94.3867C4.99659 96.061 5.37711 101.464 7.12749 101.464C7.50801 101.464 8.49735 102.149 9.33449 102.986C10.1716 103.824 11.5415 104.508 12.3786 104.508C13.2158 104.508 13.9007 104.813 13.9007 105.269C13.9007 105.65 14.3573 106.031 14.8901 106.031C16.5643 106.031 19.8368 109.683 20.8261 112.652C21.2827 114.25 22.0438 115.772 22.5004 116C22.8809 116.305 23.4136 121.023 23.642 126.502C23.9464 135.406 23.8703 136.472 22.7287 136.472C22.0438 136.472 21.5111 136.776 21.5111 137.157C21.5111 137.537 18.9235 138.451 15.8033 139.212C12.683 139.973 10.0955 140.81 10.0955 141.114C10.0955 141.495 8.64956 142.104 6.89918 142.636C2.86569 143.702 0.810898 145.757 1.11531 148.42C1.34362 150.171 1.87635 150.627 5.1488 151.388C7.2797 151.845 8.49735 152.301 8.04073 152.378C7.50801 152.378 6.51866 153.595 5.83373 154.889C5.1488 156.259 4.31166 157.553 3.93114 157.781C3.62673 158.009 2.78959 160.216 2.10466 162.728C-0.0262412 171.023 1.03921 196.518 3.62673 199.181C4.15945 199.714 4.84439 201.16 5.0727 202.454C5.37711 203.747 6.21425 205.422 6.97528 206.259C7.73632 207.02 8.80177 208.466 9.25839 209.379C9.71501 210.292 10.6283 211.053 11.2371 211.053C11.8459 211.053 12.3786 211.358 12.3786 211.738C12.3786 212.575 16.6404 214.859 18.2386 214.859C18.7713 214.859 19.228 215.163 19.228 215.544C19.228 215.924 21.1305 216.685 23.4136 217.218C25.6968 217.751 27.5993 218.359 27.5993 218.664C27.5993 218.968 29.7302 219.653 32.3178 220.186C34.9814 220.642 38.4821 221.708 40.1564 222.469C41.8307 223.23 44.4182 224.067 45.8642 224.372C47.3102 224.676 49.8977 225.513 51.572 226.274C53.2462 227.035 56.5948 228.101 59.0301 228.557C61.3893 229.09 63.368 229.775 63.368 230.079C63.368 230.384 66.1077 231.221 69.4563 231.982C72.8048 232.743 75.5446 233.656 75.5446 233.961C75.5446 234.265 76.8383 234.722 78.4365 235.026C79.9586 235.33 82.6222 236.168 84.2965 236.929C85.9708 237.69 89.3193 238.755 91.7546 239.212C94.1138 239.744 96.0925 240.429 96.0925 240.734C96.0925 240.962 98.6039 241.799 101.648 242.636C104.616 243.397 107.508 244.235 107.889 244.539C108.345 244.843 111.085 245.681 113.977 246.442C116.945 247.203 119.456 248.04 119.685 248.344C119.913 248.572 122.5 249.486 125.392 250.247C128.36 251.008 130.948 251.997 131.252 252.454C131.861 253.367 140.004 253.291 141.222 252.302C141.755 251.921 145.484 250.932 149.593 250.171C153.627 249.41 156.975 248.572 156.975 248.344C156.975 248.04 160.476 247.203 164.814 246.442C169.076 245.681 172.729 244.767 172.957 244.539C173.185 244.311 176.838 243.397 181.176 242.636C185.438 241.875 188.939 241.038 188.939 240.734C188.939 240.505 192.287 239.668 196.397 238.907C200.43 238.146 204.16 237.233 204.54 236.852C204.997 236.548 207.736 235.863 210.628 235.33C213.596 234.874 216.108 234.189 216.336 233.884C216.564 233.58 219.837 232.819 223.566 232.058C227.371 231.373 231.1 230.46 231.937 230.079C232.774 229.775 236.732 228.862 240.689 228.101C244.647 227.416 248.071 226.579 248.3 226.274C248.528 225.97 251.953 225.133 255.91 224.372C259.867 223.61 263.52 222.773 263.901 222.469C264.357 222.165 267.934 221.327 271.892 220.566C275.849 219.881 279.502 219.044 279.883 218.664C280.339 218.359 283.155 217.674 286.199 217.142C289.167 216.609 291.679 215.924 291.679 215.62C291.679 215.315 295.255 214.478 299.669 213.641C304.083 212.88 307.66 212.043 307.66 211.738C307.66 211.434 309.03 211.053 310.781 210.749C313.52 210.292 313.825 210.064 313.596 208.314C313.444 207.096 312.531 205.878 311.085 205.117C309.867 204.432 308.726 203.595 308.574 203.291C308.421 203.063 306.367 202.225 304.007 201.464C301.648 200.703 299.517 199.866 299.289 199.638C299.061 199.333 297.082 198.649 294.951 198.116L290.918 197.203V189.212C290.918 181.221 292.668 170.719 294.038 170.719C294.418 170.719 295.103 169.957 295.56 168.968C296.321 167.37 298.224 166.152 302.181 165.011C303.094 164.782 303.855 164.174 303.855 163.793C303.855 163.413 304.388 163.108 304.997 163.108C306.899 163.108 308.65 159.607 308.117 156.792C307.736 154.585 307.204 154.204 304.236 153.367L300.811 152.454L303.703 149.638C305.225 148.04 307.052 145.833 307.584 144.615C308.193 143.473 308.954 142.56 309.182 142.56C309.487 142.56 310.172 140.429 310.704 137.766C311.237 135.178 312.074 132.819 312.531 132.515C313.673 131.754 313.673 103.9 312.607 103.139C312.15 102.834 311.313 101.16 310.781 99.4095C310.172 97.6591 309.259 96.061 308.726 95.8326C308.117 95.6043 307.66 94.9194 307.66 94.3867C307.66 93.6256 309.487 93.0168 313.368 92.3319C316.488 91.7992 319.076 91.1142 319.076 90.7337C319.076 90.4293 319.837 90.0488 320.826 89.8966C322.12 89.7444 322.501 89.1355 322.501 87.3851C322.501 85.6348 321.968 84.8737 320.217 84.0366C319 83.4278 317.782 82.7428 317.554 82.3623C317.326 82.0579 315.118 81.2208 312.607 80.5358C310.096 79.7748 307.889 78.9377 307.66 78.6332C307.432 78.4049 305.758 77.7961 303.855 77.4156L300.431 76.7307V66.6089C300.431 60.7489 300.735 56.2588 301.192 55.9544C301.648 55.65 302.409 54.0518 303.018 52.3775C304.236 48.9529 307.432 45.1477 309.182 45.0716C309.791 45.0716 312.074 44.0822 314.129 42.9407C317.097 41.2664 318.01 40.3532 318.163 38.6789C318.695 34.4171 317.858 33.1994 314.129 32.6667C312.227 32.3623 310.704 31.8296 310.704 31.5252C310.704 31.2207 308.497 30.5358 305.834 30.0031C303.17 29.4704 300.126 28.5571 299.061 28.0244C297.995 27.4917 294.494 26.4262 291.146 25.6652C287.873 24.9041 285.058 24.067 284.829 23.7626C284.601 23.4582 281.785 22.6971 278.589 21.9361C275.316 21.2512 272.653 20.414 272.653 20.1096C272.653 19.8052 270.446 19.1203 267.706 18.5876C264.966 18.0548 262.759 17.3699 262.759 16.9894C262.759 16.685 259.867 15.8478 256.29 15.0868C252.714 14.3258 249.822 13.4886 249.822 13.2603C249.822 12.9559 246.93 12.0426 243.353 11.2816C239.776 10.4445 236.884 9.53123 236.884 9.30292C236.884 9.07462 234.068 8.23747 230.644 7.47644C227.143 6.71541 224.175 5.87827 223.946 5.57385C223.718 5.26944 220.978 4.4323 217.858 3.67126C214.738 2.91023 211.846 2.07309 211.389 1.76868C210.248 0.855423 206.443 0.474915 202.637 0.779327ZM32.1656 39.6682C32.1656 40.0488 34.7531 40.8859 37.8733 41.6469C40.9936 42.408 43.5811 43.2451 43.5811 43.5495C43.5811 43.8539 46.3208 44.7672 49.6694 45.5282C53.0179 46.2892 55.7577 47.2025 55.7577 47.5069C55.7577 47.8113 57.5841 48.4962 59.7911 48.9529C61.922 49.4856 63.9007 50.1705 64.129 50.4749C64.3574 50.7032 66.9449 51.5404 69.8368 52.3775C72.8048 53.1386 75.5446 53.9757 75.9251 54.2801C76.3817 54.5845 79.1975 55.4217 82.2417 56.1827C85.2097 56.8676 87.7211 57.7048 87.7211 58.0092C87.7211 58.3136 90.4609 59.2268 93.8094 59.9879C97.158 60.7489 99.8977 61.6622 99.8977 61.9666C99.8977 62.271 102.485 63.1081 105.605 63.8692C108.726 64.6302 111.313 65.4673 111.313 65.6956C111.313 66.0001 113.216 66.685 115.499 67.2177C117.782 67.7504 119.685 68.4354 119.685 68.7398C119.685 68.9681 122.424 69.8052 125.773 70.5663C129.121 71.3273 132.09 72.2406 132.242 72.545C132.47 72.9255 135.21 73.7626 138.33 74.5237C141.45 75.2847 144.038 76.1218 144.038 76.5023C144.038 76.8068 144.494 77.1112 145.027 77.1112C145.712 77.1112 145.864 80.7641 145.484 94.0062C145.179 103.367 144.951 111.586 144.875 112.347C144.799 113.489 144.342 113.641 141.983 113.184C140.385 112.88 138.939 112.423 138.711 112.119C138.482 111.814 135.286 110.977 131.481 110.216C127.752 109.455 124.479 108.542 124.251 108.238C124.023 108.009 120.978 107.096 117.402 106.411C113.825 105.65 110.704 104.737 110.476 104.356C110.248 104.052 107.356 103.215 104.083 102.606C100.735 101.921 97.8429 101.16 97.6146 100.779C97.3863 100.475 94.266 99.5617 90.6131 98.8007C86.884 98.0396 83.916 97.2025 83.916 96.8981C83.916 96.5937 81.5568 95.9088 78.5887 95.376C75.6968 94.8433 73.2615 94.1584 73.2615 93.9301C73.2615 93.6256 70.2934 92.7885 66.6405 92.0275C62.9114 91.1903 59.7911 90.3532 59.5628 90.0488C59.3345 89.8205 56.4426 88.9833 53.094 88.2223C49.7455 87.4613 46.0164 86.3958 44.7226 85.8631C43.505 85.3304 39.9281 84.4171 36.9601 83.8844C33.9159 83.3517 31.4045 82.6667 31.4045 82.2862C31.4045 81.9818 30.9479 81.6774 30.4913 81.6774C28.817 81.6013 26.4578 79.166 25.3162 76.3501C24.7074 74.9042 24.0225 73.5343 23.642 73.306C23.3375 73.0777 22.6526 69.5769 22.196 65.6195C21.2066 57.7048 21.8155 47.2786 23.3375 45.6804C23.8703 45.2238 24.4791 44.1583 24.7835 43.3973C25.0879 42.6363 26.3817 41.5708 27.5993 41.1142C28.8931 40.6576 29.8825 39.9726 29.8825 39.6682C29.8825 39.3638 30.4152 39.0594 31.024 39.0594C31.6328 39.0594 32.1656 39.3638 32.1656 39.6682ZM294.723 50.0183C294.723 50.551 294.19 52.5297 293.505 54.3562C292.668 56.7154 292.287 60.825 292.211 68.7398L292.059 79.7748L286.351 80.8403C283.231 81.4491 280.491 82.134 280.263 82.4384C280.035 82.7428 276.61 83.58 272.653 84.341C268.695 85.1021 265.271 85.9392 265.042 86.2436C264.814 86.548 261.389 87.3851 257.432 88.1462C253.475 88.9072 250.05 89.7444 249.822 90.0488C249.593 90.3532 246.169 91.1903 242.211 91.8753C238.254 92.5602 234.677 93.4734 234.22 93.7778C233.84 94.1584 231.1 94.8433 228.132 95.376C225.24 95.9088 222.653 96.5937 222.424 96.8981C222.196 97.1264 218.695 98.0396 214.662 98.8007C210.552 99.5617 207.204 100.475 207.204 100.703C207.204 101.008 203.779 101.845 199.593 102.606C195.408 103.367 191.983 104.204 191.983 104.508C191.983 104.813 188.254 105.65 183.612 106.411C179.045 107.172 175.24 108.009 175.24 108.314C175.24 108.542 171.892 109.455 167.858 110.216C163.749 110.977 160.248 111.814 160.02 112.119C159.791 112.423 158.193 112.956 156.443 113.26L153.17 113.793L153.246 102.834C153.322 96.8981 153.551 88.6789 153.855 84.7215L154.312 77.4917L157.204 77.2634C158.726 77.1112 160.02 76.7307 160.02 76.4262C160.02 76.0457 164.129 75.1325 169.152 74.3714C174.175 73.6104 178.284 72.7733 178.284 72.4689C178.284 72.2406 182.546 71.4034 187.797 70.6424C193.048 69.8813 197.31 69.0442 197.31 68.7398C197.31 68.4354 200.278 67.7504 204.007 67.2177C207.66 66.685 211.009 65.924 211.389 65.6195C211.846 65.3151 216.108 64.478 220.902 63.7169C225.697 63.032 229.806 62.1949 230.035 61.8905C230.263 61.5861 234.449 60.7489 239.395 59.9879C244.266 59.3029 248.3 58.4658 248.3 58.1614C248.3 57.857 252.485 56.9437 257.66 56.2588C262.759 55.4978 267.097 54.5845 267.326 54.3562C267.554 54.0518 271.74 53.2147 276.686 52.4536C281.557 51.6926 285.59 50.7794 285.59 50.3988C285.59 49.8661 287.797 49.4856 293.048 49.1051C294.038 49.029 294.723 49.4095 294.723 50.0183ZM295.636 100.703C299.441 102.454 302.333 109.836 302.333 117.598C302.333 122.317 300.963 131.145 300.126 132.286C299.746 132.667 299.289 134.037 298.985 135.178C298.071 138.983 293.733 142.484 288.787 143.473C286.427 143.93 284.297 144.539 284.068 144.843C283.84 145.072 280.948 145.909 277.676 146.67C274.327 147.355 271.207 148.268 270.826 148.572C270.37 148.953 268.467 149.486 266.564 149.79C264.662 150.094 262.15 150.779 260.857 151.312C259.639 151.845 255.986 152.91 252.866 153.671C249.746 154.356 247.006 155.193 246.778 155.498C246.549 155.802 243.201 156.639 239.395 157.4C235.514 158.161 232.318 159.075 232.318 159.303C232.318 159.607 229.35 160.445 225.697 161.206C221.968 161.967 218.848 162.804 218.619 163.108C218.391 163.413 215.499 164.25 212.15 164.935C208.878 165.62 205.91 166.457 205.682 166.761C205.453 167.066 203.094 167.827 200.354 168.359C197.615 168.892 195.255 169.577 195.027 169.957C194.799 170.262 191.679 171.175 188.026 171.86C184.297 172.621 181.328 173.534 181.328 173.839C181.328 174.219 180.796 174.524 180.187 174.524C178.817 174.524 178.969 176.122 178.36 154.508L177.904 137.233L180.567 136.472C182.013 136.015 183.84 135.711 184.601 135.711C185.286 135.711 185.895 135.406 185.895 135.102C185.895 134.722 188.482 133.808 191.602 133.047C194.723 132.21 197.31 131.373 197.31 131.145C197.31 130.916 199.898 130.079 203.018 129.242C206.138 128.481 208.726 127.644 208.726 127.34C208.726 127.035 210.857 126.35 213.52 125.817C216.108 125.285 219.609 124.219 221.283 123.458C222.957 122.773 225.621 121.936 227.219 121.632C228.741 121.327 230.035 120.871 230.035 120.566C230.035 120.262 232.622 119.425 235.743 118.588C238.863 117.827 241.45 116.989 241.45 116.685C241.45 116.457 244.038 115.62 247.158 114.782C250.278 114.021 252.866 113.184 252.866 112.88C252.866 112.652 255.758 111.738 259.335 110.977C262.911 110.14 265.803 109.227 265.803 108.999C265.803 108.694 268.315 107.857 271.359 107.172C274.327 106.411 276.991 105.574 277.219 105.269C277.447 105.041 279.35 104.28 281.405 103.747C283.536 103.215 285.362 102.454 285.59 102.225C285.971 101.693 291.07 100.171 292.972 100.018C293.505 99.9422 294.647 100.323 295.636 100.703ZM37.9494 110.901C41.8307 111.586 45.8642 112.119 46.9296 112.119C47.9951 112.119 48.9083 112.423 48.9083 112.804C48.9083 113.184 52.9418 114.097 57.8885 114.859C62.7592 115.62 66.9449 116.457 67.1732 116.761C67.4015 116.989 71.5872 117.827 76.5339 118.588C81.4045 119.349 85.438 120.186 85.438 120.49C85.438 120.795 88.7105 121.48 92.6679 122.088C96.6253 122.621 99.8977 123.306 99.8977 123.534C99.8977 123.839 104.007 124.676 109.03 125.437C114.053 126.122 118.163 127.035 118.163 127.34C118.163 127.644 122.348 128.481 127.523 129.242C132.622 130.003 136.96 130.84 137.188 131.145C137.417 131.449 141.526 132.286 146.321 133.047C151.115 133.732 155.453 134.645 155.834 134.95C156.29 135.254 159.563 135.939 163.14 136.472L169.685 137.385L170.141 147.659C171.055 165.848 170.826 174.524 169.532 174.524C168.924 174.524 168.391 174.219 168.391 173.915C168.391 173.534 164.966 172.621 160.781 171.86C156.595 171.099 153.17 170.262 153.17 169.957C153.17 169.653 150.507 168.968 147.31 168.435C144.038 167.979 141.07 167.294 140.613 166.913C140.233 166.609 136.58 165.772 132.622 165.011C128.665 164.25 125.24 163.413 125.012 163.108C124.784 162.804 121.359 161.967 117.402 161.206C113.444 160.445 110.019 159.607 109.791 159.303C109.563 158.999 106.138 158.161 102.181 157.4C98.2234 156.639 94.7988 155.802 94.5705 155.498C94.3421 155.193 90.9175 154.356 86.9601 153.595C83.0027 152.834 79.5781 151.997 79.3497 151.693C79.1214 151.388 76.7622 150.779 74.0225 150.247C71.2828 149.79 68.3908 149.029 67.5537 148.648C66.7166 148.344 62.7592 147.431 58.8018 146.67C54.8444 145.985 51.4198 145.148 51.1914 144.843C50.9631 144.539 47.6146 143.702 43.8094 142.941C39.9281 142.256 36.7318 141.343 36.7318 140.962C36.7318 140.582 35.9707 140.277 35.0575 140.277C31.7089 140.277 31.5567 139.668 31.5567 128.177C31.5567 122.012 31.2523 117.066 30.8718 116.761C30.4152 116.533 29.8825 115.011 29.578 113.413C29.2736 111.814 28.817 109.988 28.5887 109.303C28.2082 108.39 28.4365 108.314 29.578 108.922C30.3391 109.379 34.1442 110.292 37.9494 110.901ZM23.7942 160.673C23.7942 161.053 25.6968 161.814 27.9799 162.347C30.263 162.88 32.1656 163.565 32.1656 163.869C32.1656 164.174 34.1442 164.782 36.5796 165.315C38.9388 165.848 41.9068 166.761 43.0484 167.294C44.1899 167.903 47.6146 168.968 50.6587 169.653C53.7029 170.414 56.2904 171.175 56.5187 171.48C56.747 171.784 59.3345 172.621 62.2265 173.382C65.1945 174.143 67.7059 175.056 67.9342 175.285C68.1625 175.589 70.8261 176.426 73.8703 177.187C76.8383 177.948 79.3497 178.862 79.3497 179.166C79.3497 179.47 80.6435 179.927 82.2417 180.231C83.7638 180.536 86.4274 181.373 88.1017 182.134C89.7759 182.895 93.2767 183.961 95.9403 184.417C98.5278 184.95 100.659 185.635 100.659 185.863C100.659 186.168 103.17 187.081 106.214 187.842C109.182 188.603 111.846 189.44 112.074 189.744C112.303 189.973 114.89 190.886 117.782 191.647C120.75 192.408 123.261 193.245 123.49 193.55C123.718 193.854 126.23 194.615 129.121 195.376C131.937 196.061 134.753 197.126 135.362 197.735C136.656 199.029 136.96 222.469 135.666 222.469C135.21 222.469 134.905 224.98 134.905 228.481V234.493L132.09 233.808C130.491 233.352 128.665 232.819 128.056 232.591C126.914 232.134 117.858 229.623 108.269 227.187C105.529 226.502 103.17 225.741 102.942 225.513C102.714 225.209 99.7455 224.448 96.2447 223.687C92.744 222.926 88.9388 221.86 87.8733 221.251C86.7318 220.642 85.1336 220.186 84.2965 220.186C82.3939 220.11 76.2295 218.512 75.0118 217.674C74.5552 217.37 71.5111 216.609 68.1625 215.924C64.8901 215.239 62.0742 214.478 61.8459 214.174C61.6176 213.869 58.5735 213.032 54.9966 212.271C51.4198 211.51 48.2234 210.673 47.7668 210.292C47.3863 209.988 44.951 209.303 42.4395 208.77C39.9281 208.238 37.7211 207.553 37.4928 207.324C37.1123 206.715 30.4152 205.117 25.5445 204.432C24.1747 204.204 23.0331 203.824 23.0331 203.519C23.0331 203.215 21.8155 202.53 20.3695 201.997C18.9235 201.464 17.7059 200.551 17.7059 199.942C17.7059 199.333 17.1732 198.649 16.5643 198.42C15.2706 197.887 13.1397 191.419 13.1397 188.07C13.1397 186.929 12.8353 185.939 12.3786 185.939C11.922 185.939 11.6176 182.895 11.6176 178.329C11.6176 173.763 11.922 170.719 12.3786 170.719C12.8353 170.719 13.1397 170.11 13.1397 169.273C13.1397 166.837 15.3467 162.347 16.5643 162.347C17.2493 162.347 17.9342 161.814 18.1625 161.206C18.6191 159.988 23.7942 159.531 23.7942 160.673ZM284.829 169.881C284.829 170.338 284.297 172.926 283.612 175.817C282.698 179.623 282.47 183.58 282.698 190.658L283.003 200.323L275.925 201.617C272.044 202.378 268.848 203.215 268.848 203.443C268.848 203.747 265.423 204.585 261.237 205.346C257.052 206.107 253.627 206.944 253.627 207.248C253.627 207.553 250.963 208.238 247.767 208.77C244.494 209.303 241.526 209.988 241.07 210.368C240.689 210.673 237.265 211.51 233.459 212.271C229.73 212.956 226.458 213.793 226.23 214.098C226.001 214.326 222.348 215.239 218.087 216C213.749 216.761 210.248 217.598 210.248 217.903C210.248 218.131 206.899 219.044 202.866 219.805C198.756 220.566 195.255 221.403 195.027 221.708C194.799 222.012 191.45 222.849 187.493 223.534C183.612 224.295 179.806 225.209 179.121 225.513C178.437 225.894 175.545 226.731 172.577 227.34C166.184 228.709 153.703 231.83 147.843 233.428C145.56 234.113 143.581 234.645 143.505 234.645C143.353 234.645 143.277 228.101 143.277 220.186C143.277 211.053 143.581 205.726 144.038 205.726C144.494 205.726 144.799 203.976 144.799 201.921C144.799 199.029 145.103 198.116 145.94 198.116C146.549 198.116 147.082 197.887 147.082 197.507C147.082 197.203 151.191 196.289 156.138 195.528C161.161 194.767 165.347 193.854 165.499 193.397C165.651 192.941 168.924 192.56 172.957 192.408C180.187 192.256 188.939 190.734 188.939 189.744C188.939 188.983 194.19 187.69 199.822 187.081C202.181 186.776 204.16 186.244 204.16 185.939C204.16 185.559 208.269 184.722 213.292 183.961C218.315 183.2 222.424 182.362 222.424 182.058C222.424 181.83 225.697 181.145 229.654 180.536C233.612 180.003 236.884 179.318 236.884 179.09C236.884 178.785 238.178 178.329 239.776 178.101C241.298 177.872 245.332 177.263 248.68 176.807C252.029 176.274 254.921 175.665 255.149 175.361C255.377 175.056 259.639 174.143 264.662 173.382C269.685 172.621 273.947 171.784 274.175 171.48C274.403 171.175 276.61 170.566 279.122 170.186C281.633 169.729 283.916 169.349 284.297 169.273C284.601 169.273 284.829 169.501 284.829 169.881Z" fill="#007AFF"/>
</svg>
