<svg width="20" height="20" viewBox="0 0 20 20" fill="none" xmlns="http://www.w3.org/2000/svg">
<path d="M11.6665 12.5C11.9026 12.5 12.1076 12.4133 12.2815 12.24C12.4554 12.0667 12.5421 11.8617 12.5415 11.625C12.5409 11.3883 12.4543 11.1836 12.2815 11.0108C12.1087 10.838 11.9037 10.7511 11.6665 10.75C11.4293 10.7489 11.2246 10.8358 11.0523 11.0108C10.8801 11.1858 10.7932 11.3905 10.7915 11.625C10.7898 11.8594 10.8768 12.0644 11.0523 12.24C11.2279 12.4155 11.4326 12.5022 11.6665 12.5ZM11.0415 9.83332H12.2915C12.2915 9.43055 12.3332 9.13555 12.4165 8.94832C12.4998 8.7611 12.6943 8.51443 12.9998 8.20832C13.4165 7.79166 13.6943 7.45499 13.8332 7.19832C13.9721 6.94166 14.0415 6.63943 14.0415 6.29166C14.0415 5.66666 13.8226 5.15638 13.3848 4.76082C12.9471 4.36527 12.3743 4.16721 11.6665 4.16666C11.0971 4.16666 10.6007 4.32638 10.1773 4.64582C9.754 4.96527 9.45873 5.38888 9.2915 5.91666L10.4165 6.37499C10.5415 6.02777 10.7118 5.76749 10.9273 5.59416C11.1429 5.42082 11.3893 5.33388 11.6665 5.33332C11.9998 5.33332 12.2707 5.42721 12.479 5.61499C12.6873 5.80277 12.7915 6.0561 12.7915 6.37499C12.7915 6.56943 12.7359 6.7536 12.6248 6.92749C12.5137 7.10138 12.3193 7.31999 12.0415 7.58332C11.5832 7.9861 11.3021 8.30221 11.1982 8.53166C11.0943 8.7611 11.0421 9.19499 11.0415 9.83332ZM6.6665 15C6.20817 15 5.81595 14.8369 5.48984 14.5108C5.16373 14.1847 5.00039 13.7922 4.99984 13.3333V3.33332C4.99984 2.87499 5.16317 2.48277 5.48984 2.15666C5.8165 1.83055 6.20873 1.66721 6.6665 1.66666H16.6665C17.1248 1.66666 17.5173 1.82999 17.844 2.15666C18.1707 2.48332 18.3337 2.87555 18.3332 3.33332V13.3333C18.3332 13.7917 18.1701 14.1842 17.844 14.5108C17.5179 14.8375 17.1254 15.0005 16.6665 15H6.6665ZM6.6665 13.3333H16.6665V3.33332H6.6665V13.3333ZM3.33317 18.3333C2.87484 18.3333 2.48262 18.1703 2.1565 17.8442C1.83039 17.518 1.66706 17.1255 1.6665 16.6667V4.99999H3.33317V16.6667H14.9998V18.3333H3.33317Z" fill="#F5F7FD"/>
</svg>
