<svg width="20" height="20" viewBox="0 0 20 20" fill="none" xmlns="http://www.w3.org/2000/svg">
<path d="M8.7915 2.5C5.5815 2.50583 3.89984 2.585 2.82567 3.65833C1.6665 4.81917 1.6665 6.685 1.6665 10.4167C1.6665 14.1483 1.6665 16.0142 2.82567 17.1742C3.98567 18.3333 5.85067 18.3333 9.584 18.3333C13.3157 18.3333 15.1815 18.3333 16.3407 17.1742C17.4157 16.0992 17.494 14.4183 17.4998 11.2075" stroke="#F5F7FD" stroke-width="1.25" stroke-linecap="round" stroke-linejoin="round"/>
<path d="M9.21299 10.8333C8.60965 3.22166 14.0013 1.06332 18.3163 1.80332C18.4905 4.32582 17.2555 5.26999 14.9055 5.70666C15.3597 6.18166 16.1613 6.77832 16.0747 7.52332C16.013 8.05499 15.653 8.31499 14.9313 8.83666C13.3513 9.97832 11.5213 10.6983 9.21299 10.8333Z" stroke="#F5F7FD" stroke-width="1.25" stroke-linecap="round" stroke-linejoin="round"/>
<path d="M7.5 14.1667C9.16667 9.58332 10.8 8.02999 12.5 6.66666" stroke="#F5F7FD" stroke-width="1.25" stroke-linecap="round" stroke-linejoin="round"/>
</svg>
