<svg width="20" height="20" viewBox="0 0 20 20" fill="none" xmlns="http://www.w3.org/2000/svg">
<path d="M17.2583 16.0828L14.425 13.2578C15.3392 12.0932 15.8352 10.655 15.8333 9.17448C15.8333 7.85594 15.4423 6.567 14.7098 5.47068C13.9773 4.37435 12.9361 3.51987 11.7179 3.01528C10.4997 2.5107 9.15927 2.37868 7.86607 2.63591C6.57286 2.89314 5.38497 3.52808 4.45262 4.46043C3.52027 5.39278 2.88534 6.58067 2.6281 7.87388C2.37087 9.16708 2.50289 10.5075 3.00747 11.7257C3.51206 12.9439 4.36654 13.9851 5.46287 14.7176C6.5592 15.4502 7.84813 15.8411 9.16667 15.8411C10.6472 15.843 12.0854 15.347 13.25 14.4328L16.075 17.2661C16.1525 17.3442 16.2446 17.4062 16.3462 17.4486C16.4477 17.4909 16.5567 17.5126 16.6667 17.5126C16.7767 17.5126 16.8856 17.4909 16.9871 17.4486C17.0887 17.4062 17.1809 17.3442 17.2583 17.2661C17.3364 17.1887 17.3984 17.0965 17.4407 16.995C17.4831 16.8934 17.5048 16.7845 17.5048 16.6745C17.5048 16.5645 17.4831 16.4555 17.4407 16.354C17.3984 16.2524 17.3364 16.1603 17.2583 16.0828ZM4.16667 9.17448C4.16667 8.18557 4.45991 7.21887 5.00932 6.39663C5.55873 5.57438 6.33962 4.93352 7.25325 4.55508C8.16688 4.17664 9.17222 4.07763 10.1421 4.27055C11.112 4.46348 12.0029 4.93968 12.7022 5.63894C13.4015 6.33821 13.8777 7.22912 14.0706 8.19903C14.2635 9.16893 14.1645 10.1743 13.7861 11.0879C13.4076 12.0015 12.7668 12.7824 11.9445 13.3318C11.1223 13.8812 10.1556 14.1745 9.16667 14.1745C7.84059 14.1745 6.56882 13.6477 5.63114 12.71C4.69345 11.7723 4.16667 10.5006 4.16667 9.17448Z" fill="#0E202A"/>
</svg>
