<svg width="32" height="30" viewBox="0 0 32 30" fill="none" xmlns="http://www.w3.org/2000/svg">
<g filter="url(#filter0_di_148_2814)">
<path d="M14.0489 1.92705C14.3483 1.00574 15.6517 1.00574 15.9511 1.92705L18.1432 8.67376C18.2771 9.08578 18.661 9.36475 19.0943 9.36475H26.1882C27.1569 9.36475 27.5597 10.6044 26.7759 11.1738L21.0369 15.3435C20.6864 15.5981 20.5397 16.0495 20.6736 16.4615L22.8657 23.2082C23.1651 24.1295 22.1106 24.8956 21.3269 24.3262L15.5878 20.1565C15.2373 19.9019 14.7627 19.9019 14.4122 20.1565L8.67312 24.3262C7.88941 24.8956 6.83493 24.1295 7.13428 23.2082L9.32642 16.4615C9.46029 16.0495 9.31363 15.5981 8.96315 15.3435L3.22405 11.1738C2.44034 10.6044 2.84311 9.36475 3.81184 9.36475H10.9057C11.339 9.36475 11.7229 9.08578 11.8568 8.67376L14.0489 1.92705Z" fill="#FBD304"/>
</g>
<defs>
<filter id="filter0_di_148_2814" x="0.80957" y="-2.76416" width="30.3809" height="32.2861" filterUnits="userSpaceOnUse" color-interpolation-filters="sRGB">
<feFlood flood-opacity="0" result="BackgroundImageFix"/>
<feColorMatrix in="SourceAlpha" type="matrix" values="0 0 0 0 0 0 0 0 0 0 0 0 0 0 0 0 0 0 127 0" result="hardAlpha"/>
<feOffset dx="1" dy="2"/>
<feGaussianBlur stdDeviation="1.5"/>
<feComposite in2="hardAlpha" operator="out"/>
<feColorMatrix type="matrix" values="0 0 0 0 0 0 0 0 0 0 0 0 0 0 0 0 0 0 0.2 0"/>
<feBlend mode="normal" in2="BackgroundImageFix" result="effect1_dropShadow_148_2814"/>
<feBlend mode="normal" in="SourceGraphic" in2="effect1_dropShadow_148_2814" result="shape"/>
<feColorMatrix in="SourceAlpha" type="matrix" values="0 0 0 0 0 0 0 0 0 0 0 0 0 0 0 0 0 0 127 0" result="hardAlpha"/>
<feOffset dy="-5"/>
<feGaussianBlur stdDeviation="2"/>
<feComposite in2="hardAlpha" operator="arithmetic" k2="-1" k3="1"/>
<feColorMatrix type="matrix" values="0 0 0 0 0.984314 0 0 0 0 0.737255 0 0 0 0 0.0156863 0 0 0 1 0"/>
<feBlend mode="normal" in2="shape" result="effect2_innerShadow_148_2814"/>
</filter>
</defs>
</svg>
