<svg width="32" height="30" viewBox="0 0 32 30" fill="none" xmlns="http://www.w3.org/2000/svg">
<g filter="url(#filter0_d_148_2890)">
<path d="M14.0489 1.92705C14.3483 1.00574 15.6517 1.00574 15.9511 1.92705L18.1432 8.67376C18.2771 9.08578 18.661 9.36475 19.0943 9.36475H26.1882C27.1569 9.36475 27.5597 10.6044 26.7759 11.1738L21.0369 15.3435C20.6864 15.5981 20.5397 16.0495 20.6736 16.4615L22.8657 23.2082C23.1651 24.1295 22.1106 24.8956 21.3269 24.3262L15.5878 20.1565C15.2373 19.9019 14.7627 19.9019 14.4122 20.1565L8.67312 24.3262C7.88941 24.8956 6.83493 24.1295 7.13428 23.2082L9.32642 16.4615C9.46029 16.0495 9.31363 15.5981 8.96315 15.3435L3.22405 11.1738C2.44034 10.6044 2.84311 9.36475 3.81184 9.36475H10.9057C11.339 9.36475 11.7229 9.08578 11.8568 8.67376L14.0489 1.92705Z" fill="#E6E6E6"/>
<path d="M14.5245 2.08156C14.6741 1.6209 15.3259 1.62091 15.4755 2.08156L17.6677 8.82827C17.8685 9.4463 18.4444 9.86475 19.0943 9.86475H26.1882C26.6725 9.86475 26.8739 10.4846 26.4821 10.7693L20.743 14.9389C20.2172 15.3209 19.9972 15.998 20.1981 16.616L22.3902 23.3627C22.5399 23.8234 22.0126 24.2064 21.6208 23.9217L15.8817 19.752C15.3559 19.3701 14.6441 19.3701 14.1183 19.752L8.37923 23.9217C7.98737 24.2064 7.46013 23.8234 7.60981 23.3627L9.80195 16.616C10.0028 15.998 9.78277 15.3209 9.25704 14.9389L3.51794 10.7693C3.12609 10.4846 3.32747 9.86475 3.81184 9.86475H10.9057C11.5556 9.86475 12.1315 9.44631 12.3323 8.82827L14.5245 2.08156Z" stroke="#E7E7E7"/>
</g>
<defs>
<filter id="filter0_d_148_2890" x="0.80957" y="0.23584" width="30.3809" height="29.2861" filterUnits="userSpaceOnUse" color-interpolation-filters="sRGB">
<feFlood flood-opacity="0" result="BackgroundImageFix"/>
<feColorMatrix in="SourceAlpha" type="matrix" values="0 0 0 0 0 0 0 0 0 0 0 0 0 0 0 0 0 0 127 0" result="hardAlpha"/>
<feOffset dx="1" dy="2"/>
<feGaussianBlur stdDeviation="1.5"/>
<feComposite in2="hardAlpha" operator="out"/>
<feColorMatrix type="matrix" values="0 0 0 0 0 0 0 0 0 0 0 0 0 0 0 0 0 0 0.2 0"/>
<feBlend mode="normal" in2="BackgroundImageFix" result="effect1_dropShadow_148_2890"/>
<feBlend mode="normal" in="SourceGraphic" in2="effect1_dropShadow_148_2890" result="shape"/>
</filter>
</defs>
</svg>
