<svg width="20" height="21" viewBox="0 0 20 21" fill="none" xmlns="http://www.w3.org/2000/svg">
<mask id="mask0_34_737" style="mask-type:alpha" maskUnits="userSpaceOnUse" x="-1" y="0" width="21" height="21">
<path fill-rule="evenodd" clip-rule="evenodd" d="M16.9311 4.44135C17.6944 4.64548 18.2979 5.24898 18.502 6.01223C18.8747 7.39673 18.8747 10.2811 18.8747 10.2811C18.8747 10.2811 18.8747 13.1655 18.502 14.55C18.2979 15.3132 17.6944 15.9167 16.9311 16.1209C15.5466 16.4936 9.99975 16.4936 9.99975 16.4936C9.99975 16.4936 4.45288 16.4936 3.06838 16.1209C2.30513 15.9167 1.70163 15.3132 1.49751 14.55C1.12476 13.1655 1.12476 10.2811 1.12476 10.2811C1.12476 10.2811 1.12476 7.39673 1.49751 6.01223C1.70163 5.24898 2.30513 4.64548 3.06838 4.44135C4.45288 4.0686 9.99975 4.0686 9.99975 4.0686C9.99975 4.0686 15.5466 4.0686 16.9311 4.44135ZM8.22477 7.61882V12.9438L12.8398 10.2813L8.22477 7.61882Z" fill="#171719"/>
</mask>
<g mask="url(#mask0_34_737)">
<rect x="-0.000244141" y="0.281006" width="20" height="20" fill="#989BA2"/>
</g>
</svg>
